<svg width="362" height="335" viewBox="0 0 362 335" fill="none" xmlns="http://www.w3.org/2000/svg">
<g clip-path="url(#clip0)">
<path d="M329.799 268.388L300.413 224.678C300.413 224.678 344.916 240.236 339.865 268.388H329.799Z" fill="#315EFB"/>
<path d="M25.1908 268.678L24.0752 268.656C24.5066 256.235 25.8301 243.862 28.0352 231.631C32.8592 205.445 40.8805 188.248 51.8766 180.516L52.5171 181.431C26.8303 199.491 25.2038 267.988 25.1908 268.678Z" fill="#315EFB"/>
<path d="M39.1351 268.411L38.0195 268.389C38.0435 267.152 38.7407 237.996 50.203 229.937L50.8436 230.851C39.8438 238.585 39.1405 268.114 39.1351 268.411Z" fill="#315EFB"/>
<path d="M58.8635 181.532C61.944 181.532 64.4413 179.031 64.4413 175.947C64.4413 172.862 61.944 170.361 58.8635 170.361C55.7829 170.361 53.2856 172.862 53.2856 175.947C53.2856 179.031 55.7829 181.532 58.8635 181.532Z" fill="#1F1F1F"/>
<path d="M56.1013 229.568C59.1818 229.568 61.6791 227.067 61.6791 223.983C61.6791 220.898 59.1818 218.397 56.1013 218.397C53.0207 218.397 50.5234 220.898 50.5234 223.983C50.5234 227.067 53.0207 229.568 56.1013 229.568Z" fill="#1F1F1F"/>
<path d="M36.5351 184.88C37.5834 191.585 34.8512 197.582 34.8512 197.582C34.8512 197.582 30.4195 192.709 29.3712 186.004C28.323 179.299 31.0551 173.302 31.0551 173.302C31.0551 173.302 35.4868 178.176 36.5351 184.88Z" fill="#315EFB"/>
<path d="M54.7675 201.164C48.357 203.366 41.9839 201.717 41.9839 201.717C41.9839 201.717 46.0043 196.498 52.4149 194.296C58.8254 192.094 65.1986 193.743 65.1986 193.743C65.1986 193.743 61.1781 198.963 54.7675 201.164Z" fill="#315EFB"/>
<path d="M54.9735 243.705C52.0721 244.617 48.9823 244.751 46.0132 244.092C47.8984 241.689 50.4375 239.882 53.3245 238.891C56.2115 237.899 59.3232 237.765 62.2848 238.503C60.3445 240.848 57.8234 242.642 54.9735 243.705Z" fill="#315EFB"/>
<path d="M361.442 269.505H0.557781C0.409848 269.505 0.267983 269.446 0.163378 269.342C0.0587742 269.237 0 269.095 0 268.947C0 268.799 0.0587742 268.656 0.163378 268.552C0.267983 268.447 0.409848 268.388 0.557781 268.388H361.442C361.59 268.388 361.732 268.447 361.837 268.552C361.941 268.656 362 268.799 362 268.947C362 269.095 361.941 269.237 361.837 269.342C361.732 269.446 361.59 269.505 361.442 269.505Z" fill="#CBCBCB"/>
<path d="M228.574 295.255L224.011 307.148L176.029 295.182L182.763 277.628L228.574 295.255Z" fill="#FFB7B7"/>
<path d="M241.251 296.651L226.537 335L226.053 334.814C222.099 333.293 218.912 330.261 217.19 326.387C215.469 322.512 215.355 318.111 216.873 314.152L216.874 314.152L225.86 290.729L241.251 296.651Z" fill="#2F2E41"/>
<path d="M155.663 146.338L134.752 148.298L133.715 210.601C133.992 213.654 135.452 216.478 137.783 218.466C140.113 220.454 143.129 221.45 146.183 221.239L159.441 220.325L155.663 146.338Z" fill="#315EFB"/>
<path d="M229.38 143.271L215.073 143.087L214.225 217.116C217.387 217.221 220.536 216.673 223.477 215.506C226.418 214.339 229.087 212.577 231.318 210.331C233.549 208.085 235.294 205.403 236.444 202.452C237.594 199.501 238.124 196.344 238.002 193.179L229.38 143.271Z" fill="#315EFB"/>
<path d="M146.362 243.415C146.023 245.562 145.531 247.682 144.89 249.759C144.168 251.792 143.054 253.672 142.394 255.726C140.289 262.273 143.206 269.573 147.865 274.626C151.906 278.991 157.121 282.092 162.882 283.555C167.084 284.614 171.455 284.766 175.786 284.913C187.78 285.321 200.082 285.685 211.447 281.825C215.038 280.576 218.506 278.998 221.808 277.112C222.85 276.614 223.769 275.89 224.496 274.992C225.363 273.756 225.474 272.154 225.466 270.644C225.441 265.552 224.41 260.486 224.654 255.401C224.79 252.584 225.316 249.769 225.057 246.961C224.699 243.771 223.364 240.771 221.237 238.37C219.11 235.969 216.294 234.285 213.174 233.548C209.95 232.855 206.606 233.233 203.324 233.549C194.804 234.369 186.248 234.752 177.689 234.697C168.944 234.641 160.252 233.304 151.551 233.164C148.978 233.123 149.029 233.918 148.21 236.412C147.456 238.707 146.839 241.045 146.362 243.415Z" fill="#2F2E41"/>
<path d="M112.165 239.276C109.814 238.685 107.391 238.427 104.967 238.51C102.421 238.651 99.9342 239.333 97.6717 240.511C95.4092 241.689 93.423 243.336 91.8453 245.342C90.2676 247.348 89.1344 249.668 88.5211 252.146C87.9079 254.625 87.8286 257.206 88.2886 259.718C88.8758 262.439 89.8356 265.065 91.1408 267.523C93.0497 271.402 95.3392 275.272 98.8731 277.758C100.94 279.213 103.333 280.119 105.697 281.011L124.31 288.033C127.048 289.065 129.786 290.099 132.551 291.056C146.443 295.865 160.927 298.748 175.599 299.626C180.068 299.893 184.605 299.967 188.965 298.948C190 298.706 191.104 298.346 191.703 297.467C192.057 296.848 192.267 296.156 192.314 295.444L193.46 287.415C193.621 286.285 193.776 285.095 193.362 284.031C192.838 282.681 191.522 281.832 190.268 281.111C178.032 274.073 163.745 270.191 153.445 260.532C151.02 258.258 148.991 254.653 146.045 253.109C142.705 251.357 138.771 250.357 135.317 248.743C127.769 245.215 120.347 241.16 112.165 239.276Z" fill="#2F2E41"/>
<path opacity="0.1" d="M130.747 250.101C137.326 252.165 165.101 266.467 169.862 271.46C169.224 271.69 147.573 259.54 146.923 259.344C141.017 257.569 135.079 255.783 129.471 253.186C128.343 252.663 122.141 250.207 122.422 248.782C122.739 247.173 129.579 249.734 130.747 250.101Z" fill="black"/>
<path d="M170.451 125.397L152.738 138.865C152.738 138.865 134.047 139.45 134.679 151.415C135.31 163.379 142.791 220.027 142.791 220.027L144.414 239.518L175.199 248.302C191.833 253.048 209.407 253.425 226.229 249.397L222.57 229.843C222.57 229.843 237.384 141.037 228.46 137.127C219.535 133.217 213.957 134.334 213.957 134.334L202.771 124.559L170.451 125.397Z" fill="#315EFB"/>
<path d="M222.882 103.643C222.882 121.127 206.738 118.482 186.824 118.482C166.909 118.482 150.766 121.127 150.766 103.643C150.766 86.1598 158.651 55.1691 186.824 55.1691C215.967 55.1691 222.882 86.1598 222.882 103.643Z" fill="#2F2E41"/>
<path d="M205.568 109.568C215.043 100.08 215.043 84.6954 205.568 75.2066C196.092 65.7179 180.729 65.7179 171.253 75.2066C161.778 84.6954 161.778 100.08 171.253 109.568C180.729 119.057 196.092 119.057 205.568 109.568Z" fill="#FFB7B7"/>
<path d="M158.669 91.7721H168.266L172.499 79.9009L173.346 91.7721H177.933L180.403 84.8472L180.897 91.7721H214.979C214.979 84.9505 212.273 78.4083 207.456 73.5847C202.639 68.761 196.106 66.0511 189.294 66.0511H184.354C177.542 66.0511 171.009 68.761 166.192 73.5847C161.375 78.4083 158.669 84.9505 158.669 91.7721Z" fill="#2F2E41"/>
<path d="M211.168 128.19H162.641V186.838H211.168V128.19Z" fill="#1F1F1F"/>
<path d="M165.316 294.696L169.879 306.59L217.862 294.623L211.127 277.07L165.316 294.696Z" fill="#FFB7B7"/>
<path d="M168.03 290.17L177.017 313.593L177.017 313.594C178.535 317.553 178.421 321.953 176.7 325.828C174.979 329.703 171.791 332.734 167.837 334.255L167.353 334.442L152.639 296.092L168.03 290.17Z" fill="#2F2E41"/>
<path d="M261.228 234.724C265.083 233.756 269.079 233.483 273.029 233.917C276.184 234.265 279.435 235.144 281.738 237.33C284.542 239.992 285.442 244.108 285.518 247.976C285.641 255.679 283.089 263.187 278.299 269.216C277.129 270.741 275.738 272.082 274.172 273.195C272.482 274.253 270.682 275.122 268.802 275.786L227.12 292.249C216.155 296.58 205.151 300.924 193.713 303.779C193.091 304.08 192.375 304.121 191.723 303.893C191.071 303.665 190.537 303.188 190.236 302.565C190.227 302.546 190.218 302.527 190.209 302.507C186.557 297.284 183.494 291.671 181.074 285.773C180.959 285.633 180.88 285.467 180.843 285.29C180.806 285.112 180.812 284.929 180.861 284.754C180.91 284.58 181 284.42 181.124 284.288C181.247 284.156 181.401 284.055 181.572 283.995L211.054 267.032C213.165 265.817 215.301 264.584 217.054 262.892C218.328 261.655 219.372 260.201 220.135 258.597C220.746 257.319 220.803 254.302 221.584 253.357C222.348 252.432 224.962 252.359 226.17 251.995C227.873 251.472 229.54 250.841 231.163 250.105C237.757 247.15 243.63 242.858 249.952 239.398C253.498 237.368 257.287 235.797 261.228 234.724Z" fill="#2F2E41"/>
<path opacity="0.1" d="M244.515 247.392C239.45 251.201 232.891 254.703 227.871 258.613C226.158 259.947 197.597 276.027 197.193 278.163C201.877 278.953 231.711 258.053 235.979 255.967C240.247 253.882 244.031 250.941 247.781 248.022C248.736 247.278 252.786 245.041 250.043 244.21C248.498 243.742 245.656 246.63 244.515 247.392Z" fill="black"/>
<path d="M335.554 100.381C345.18 100.381 352.983 92.5671 352.983 82.9276C352.983 73.2882 345.18 65.4739 335.554 65.4739C325.928 65.4739 318.124 73.2882 318.124 82.9276C318.124 92.5671 325.928 100.381 335.554 100.381Z" fill="#EAAB09"/>
<path d="M303.296 103.507C310.049 103.507 315.523 98.0257 315.523 91.2637C315.523 84.5017 310.049 79.02 303.296 79.02C296.543 79.02 291.069 84.5017 291.069 91.2637C291.069 98.0257 296.543 103.507 303.296 103.507Z" fill="#E35540"/>
<path d="M79.3241 95.5206C84.7384 95.5206 89.1277 91.1252 89.1277 85.7033C89.1277 80.2814 84.7384 75.8861 79.3241 75.8861C73.9097 75.8861 69.5205 80.2814 69.5205 85.7033C69.5205 91.1252 73.9097 95.5206 79.3241 95.5206Z" fill="#E35540"/>
<path d="M95.4646 102.122C99.2627 102.122 102.342 99.0388 102.342 95.2353C102.342 91.4319 99.2627 88.3486 95.4646 88.3486C91.6664 88.3486 88.5874 91.4319 88.5874 95.2353C88.5874 99.0388 91.6664 102.122 95.4646 102.122Z" fill="#F7B40A"/>
<path d="M190.568 15.0087C194.707 15.0087 198.062 11.6489 198.062 7.50437C198.062 3.35982 194.707 0 190.568 0C186.429 0 183.074 3.35982 183.074 7.50437C183.074 11.6489 186.429 15.0087 190.568 15.0087Z" fill="#E35540"/>
<path opacity="0.17" d="M145.908 165.613L146.578 160.435C146.578 160.435 171.566 162.262 167.661 168.406C163.757 174.55 154.275 175.109 154.275 175.109L145.908 165.613Z" fill="#2F2E41"/>
<path d="M164.77 143.099C166.202 143.257 167.58 143.73 168.807 144.485C170.035 145.239 171.08 146.257 171.868 147.464C172.586 148.565 173.074 149.8 173.304 151.095C173.533 152.39 173.499 153.718 173.203 155C172.907 156.281 172.355 157.49 171.581 158.552C170.807 159.615 169.826 160.51 168.698 161.183C168.284 161.428 167.853 161.64 167.406 161.819L152.047 208.865C151.602 209.793 150.978 210.624 150.211 211.31C149.445 211.996 148.55 212.524 147.579 212.863C146.608 213.201 145.579 213.344 144.553 213.284C143.526 213.223 142.522 212.96 141.597 212.509C140.673 212.058 139.846 211.429 139.165 210.657C138.484 209.885 137.963 208.987 137.63 208.012C137.297 207.038 137.16 206.007 137.226 204.98C137.292 203.952 137.561 202.948 138.016 202.025L154.35 155.501C153.905 153.962 153.846 152.336 154.178 150.769C154.509 149.201 155.222 147.739 156.252 146.513C157.283 145.287 158.599 144.334 160.084 143.739C161.57 143.143 163.18 142.924 164.77 143.099Z" fill="#FFB7B7"/>
<path d="M146.137 160.877C146.137 160.877 154.938 175.934 167.661 168.406L155.331 215.659H144.942L134.195 213.649L137.204 194.126L146.137 160.877Z" fill="#315EFB"/>
<path d="M208.977 171.168L201.686 161.145C201.686 161.145 205.19 150.749 218.777 154.55C218.777 154.55 227.423 173.93 208.977 171.168Z" fill="#315EFB"/>
<path opacity="0.17" d="M208.977 171.168L201.686 161.145C201.686 161.145 205.19 150.749 218.777 154.55C218.777 154.55 227.423 173.93 208.977 171.168Z" fill="#2F2E41"/>
<path d="M210.907 136.149C213.01 137.128 214.693 138.831 215.648 140.947C216.604 143.064 216.769 145.453 216.113 147.681L232.448 194.205C232.903 195.128 233.171 196.133 233.238 197.16C233.304 198.188 233.167 199.219 232.834 200.193C232.501 201.167 231.979 202.066 231.298 202.838C230.617 203.61 229.791 204.239 228.866 204.69C227.942 205.14 226.937 205.404 225.911 205.464C224.884 205.525 223.856 205.382 222.884 205.043C221.913 204.705 221.019 204.177 220.252 203.491C219.485 202.805 218.861 201.974 218.416 201.045L203.057 153.999C202.611 153.821 202.179 153.608 201.765 153.364C200.637 152.69 199.657 151.795 198.882 150.732C198.108 149.67 197.557 148.462 197.261 147.18C196.965 145.899 196.93 144.571 197.16 143.275C197.389 141.98 197.877 140.745 198.595 139.644C199.384 138.437 200.429 137.42 201.656 136.665C202.883 135.911 204.262 135.437 205.693 135.28C207.478 135.077 209.284 135.378 210.907 136.149Z" fill="#FFB7B7"/>
<path d="M201.686 161.145C201.686 161.145 213.715 168.454 218.777 154.55L235.727 199.243L230.691 208.064L229.962 208.125C226.958 208.375 223.937 207.892 221.16 206.716C218.383 205.54 215.932 203.707 214.019 201.374C210.116 196.614 207.459 190.956 206.288 184.91L201.686 161.145Z" fill="#315EFB"/>
</g>
<defs>
<clipPath id="clip0">
<rect width="362" height="335" fill="white"/>
</clipPath>
</defs>
</svg>
