<svg width="306" height="329" viewBox="0 0 306 329" fill="none" xmlns="http://www.w3.org/2000/svg">
<g clip-path="url(#clip0)">
<path d="M194.106 186.664L61.833 220.699C57.3461 221.848 52.5863 221.172 48.5978 218.819C44.6093 216.466 41.7178 212.628 40.5576 208.147L0.554913 52.9234C-0.595098 48.44 0.0816187 43.6839 2.43661 39.6984C4.7916 35.713 8.63254 32.8237 13.1168 31.6644L136.175 0L167.672 14.0893L206.668 165.405C207.818 169.888 207.141 174.644 204.786 178.63C202.431 182.615 198.59 185.504 194.106 186.664Z" fill="#F2F2F2"/>
<path d="M14.37 36.5312C11.1767 37.3568 8.4415 39.4143 6.76446 42.2524C5.08741 45.0905 4.60551 48.4775 5.42447 51.6702L45.4272 206.894C46.2534 210.085 48.3125 212.818 51.1528 214.494C53.9931 216.169 57.3826 216.651 60.5778 215.832L192.851 181.797C196.044 180.971 198.779 178.914 200.456 176.076C202.133 173.238 202.615 169.851 201.796 166.658L163.405 17.6872L135.725 5.30518L14.37 36.5312Z" fill="white"/>
<path d="M167.335 14.89L146.864 20.1575C145.37 20.542 143.784 20.3176 142.455 19.5336C141.126 18.7496 140.163 17.4702 139.778 15.977L135.885 0.869037C135.868 0.802894 135.87 0.73329 135.89 0.668207C135.911 0.603124 135.95 0.545198 136.002 0.501069C136.054 0.456941 136.118 0.428397 136.185 0.418711C136.253 0.409026 136.322 0.41859 136.385 0.446309L167.392 14.206C167.461 14.2367 167.519 14.288 167.557 14.3529C167.596 14.4178 167.613 14.4931 167.607 14.5682C167.6 14.6434 167.571 14.7148 167.522 14.7725C167.474 14.8301 167.408 14.8712 167.335 14.89Z" fill="#F2F2F2"/>
<path d="M156.565 147.448L96.3433 162.944C95.9733 163.039 95.5882 163.06 95.2099 163.007C94.8316 162.953 94.4676 162.826 94.1386 162.632C93.8096 162.438 93.5221 162.181 93.2925 161.876C93.0629 161.571 92.8957 161.223 92.8004 160.853C92.7051 160.484 92.6837 160.099 92.7372 159.721C92.7908 159.343 92.9183 158.979 93.1126 158.65C93.3068 158.322 93.564 158.034 93.8694 157.805C94.1747 157.576 94.5223 157.409 94.8923 157.313L155.114 141.817C155.484 141.722 155.869 141.701 156.248 141.754C156.626 141.808 156.99 141.935 157.319 142.129C157.648 142.323 157.935 142.58 158.165 142.886C158.395 143.191 158.562 143.538 158.657 143.908C158.752 144.277 158.774 144.662 158.72 145.04C158.667 145.418 158.539 145.782 158.345 146.111C158.151 146.439 157.894 146.727 157.588 146.956C157.283 147.186 156.935 147.353 156.565 147.448Z" fill="#CCCCCC"/>
<path d="M170.636 153.959L98.7921 172.445C98.0448 172.637 97.2518 172.525 96.5874 172.133C95.9229 171.741 95.4416 171.101 95.2491 170.355C95.0567 169.608 95.169 168.816 95.5613 168.152C95.9536 167.488 96.5938 167.007 97.341 166.815L169.185 148.328C169.932 148.137 170.724 148.249 171.388 148.642C172.052 149.034 172.533 149.673 172.725 150.419C172.917 151.165 172.805 151.957 172.414 152.621C172.022 153.285 171.382 153.766 170.636 153.959Z" fill="#CCCCCC"/>
<path d="M71.7643 181.607C77.4433 181.607 82.0471 177.007 82.0471 171.332C82.0471 165.657 77.4433 161.057 71.7643 161.057C66.0852 161.057 61.4814 165.657 61.4814 171.332C61.4814 177.007 66.0852 181.607 71.7643 181.607Z" fill="#E6E6E6"/>
<path d="M150.162 120.558L70.1814 141.13C67.8699 141.722 65.4179 141.373 63.3633 140.161C61.3087 138.948 59.8193 136.971 59.2219 134.663L42.4609 69.6005C41.8687 67.2909 42.2175 64.8408 43.4309 62.7878C44.6442 60.7348 46.623 59.2465 48.9332 58.6496L128.914 38.0772C131.225 37.4854 133.677 37.8339 135.732 39.0464C137.786 40.2588 139.276 42.2361 139.873 44.5444L156.634 109.607C157.227 111.916 156.878 114.366 155.664 116.419C154.451 118.472 152.472 119.961 150.162 120.558Z" fill="white"/>
<path d="M150.162 120.558L70.1814 141.13C67.8699 141.722 65.4179 141.373 63.3633 140.161C61.3087 138.948 59.8193 136.971 59.2219 134.663L42.4609 69.6005C41.8687 67.2909 42.2175 64.8408 43.4309 62.7878C44.6442 60.7348 46.623 59.2465 48.9332 58.6496L128.914 38.0772C131.225 37.4854 133.677 37.8339 135.732 39.0464C137.786 40.2588 139.276 42.2361 139.873 44.5444L156.634 109.607C157.227 111.916 156.878 114.366 155.664 116.419C154.451 118.472 152.472 119.961 150.162 120.558ZM49.1971 59.6742C47.1588 60.2009 45.4128 61.5141 44.3422 63.3255C43.2716 65.137 42.9638 67.2989 43.4863 69.3368L60.2473 134.399C60.7745 136.436 62.0886 138.18 63.9015 139.25C65.7144 140.32 67.8779 140.628 69.9174 140.105L149.898 119.533C151.936 119.006 153.682 117.693 154.753 115.882C155.824 114.07 156.131 111.908 155.609 109.87L138.848 44.8082C138.321 42.7714 137.007 41.0267 135.194 39.957C133.381 38.8872 131.217 38.5796 129.178 39.1018L49.1971 59.6742Z" fill="#E6E6E6"/>
<path d="M124.856 59.9536L84.4909 70.3363C84.138 70.4347 83.7609 70.3956 83.4357 70.2268C83.1106 70.0581 82.8617 69.7722 82.7394 69.4271C82.6824 69.2469 82.6629 69.0569 82.6818 68.8688C82.7008 68.6807 82.7579 68.4985 82.8497 68.3332C82.9415 68.1679 83.066 68.023 83.2157 67.9074C83.3654 67.7917 83.5371 67.7078 83.7203 67.6607L124.81 57.0918C126.469 57.9322 126.033 59.651 124.856 59.9538L124.856 59.9536Z" fill="#F2F2F2"/>
<path d="M126.679 67.0286L86.3136 77.4112C85.9607 77.5096 85.5836 77.4705 85.2585 77.3018C84.9333 77.133 84.6844 76.8472 84.5621 76.5021C84.5052 76.3218 84.4856 76.1318 84.5046 75.9437C84.5236 75.7557 84.5807 75.5734 84.6725 75.4081C84.7643 75.2428 84.8888 75.0979 85.0384 74.9823C85.1881 74.8667 85.3598 74.7828 85.543 74.7356L126.632 64.1667C128.292 65.0071 127.855 66.726 126.678 67.0287L126.679 67.0286Z" fill="#F2F2F2"/>
<path d="M78.6254 83.684L66.3063 86.8526C65.904 86.9557 65.4772 86.895 65.1196 86.684C64.7619 86.473 64.5027 86.1288 64.3987 85.7269L60.6565 71.2007C60.5534 70.7986 60.6141 70.3722 60.8253 70.0148C61.0365 69.6575 61.381 69.3984 61.7831 69.2946L74.1022 66.1259C74.5045 66.023 74.9313 66.0837 75.2889 66.2947C75.6465 66.5057 75.9057 66.8498 76.0098 67.2516L79.752 81.7779C79.8551 82.1799 79.7944 82.6064 79.5832 82.9637C79.372 83.3211 79.0275 83.5801 78.6254 83.684V83.684Z" fill="#E6E6E6"/>
<path d="M130.293 81.5446L68.6884 97.3904C68.3355 97.4888 67.9584 97.4497 67.6332 97.2809C67.3081 97.1122 67.0592 96.8264 66.9369 96.4813C66.8799 96.301 66.8604 96.111 66.8793 95.9229C66.8983 95.7348 66.9554 95.5526 67.0472 95.3873C67.139 95.222 67.2635 95.0771 67.4132 94.9615C67.5629 94.8459 67.7346 94.7619 67.9178 94.7148L130.247 78.6826C131.907 79.523 131.47 81.2418 130.293 81.5446L130.293 81.5446Z" fill="#F2F2F2"/>
<path d="M132.116 88.6215L70.5117 104.467C70.1588 104.566 69.7816 104.527 69.4565 104.358C69.1314 104.189 68.8824 103.903 68.7601 103.558C68.7032 103.378 68.6836 103.188 68.7026 103C68.7215 102.812 68.7787 102.629 68.8705 102.464C68.9622 102.299 69.0868 102.154 69.2365 102.038C69.3861 101.923 69.5578 101.839 69.741 101.792L132.07 85.7595C133.73 86.5999 133.293 88.3187 132.116 88.6215V88.6215Z" fill="#F2F2F2"/>
<path d="M133.938 95.6938L72.3334 111.54C71.9805 111.638 71.6034 111.599 71.2783 111.43C70.9531 111.261 70.7042 110.976 70.5819 110.63C70.525 110.45 70.5054 110.26 70.5244 110.072C70.5433 109.884 70.6004 109.702 70.6922 109.536C70.784 109.371 70.9086 109.226 71.0582 109.111C71.2079 108.995 71.3796 108.911 71.5628 108.864L133.892 92.8318C135.552 93.6721 135.115 95.391 133.938 95.6938Z" fill="#F2F2F2"/>
<path d="M135.761 102.77L74.1564 118.616C73.8035 118.714 73.4264 118.675 73.1013 118.506C72.7761 118.338 72.5272 118.052 72.4049 117.707C72.348 117.527 72.3284 117.337 72.3474 117.148C72.3663 116.96 72.4234 116.778 72.5152 116.613C72.607 116.448 72.7316 116.303 72.8812 116.187C73.0309 116.071 73.2026 115.987 73.3858 115.94L135.715 99.9082C137.375 100.749 136.938 102.467 135.761 102.77L135.761 102.77Z" fill="#F2F2F2"/>
<path d="M137.583 109.843L75.9784 125.689C75.6256 125.787 75.2484 125.748 74.9233 125.58C74.5981 125.411 74.3492 125.125 74.2269 124.78C74.17 124.6 74.1504 124.41 74.1694 124.222C74.1883 124.033 74.2455 123.851 74.3373 123.686C74.429 123.521 74.5536 123.376 74.7032 123.26C74.8529 123.144 75.0246 123.061 75.2078 123.013L137.537 106.981C139.197 107.822 138.76 109.54 137.583 109.843Z" fill="#F2F2F2"/>
<path d="M72.523 174.934C72.299 174.992 72.0623 174.975 71.8484 174.887L71.8352 174.882L69.034 173.695C68.904 173.64 68.7861 173.56 68.687 173.459C68.588 173.359 68.5098 173.24 68.4569 173.109C68.404 172.978 68.3774 172.838 68.3787 172.697C68.38 172.556 68.409 172.417 68.4643 172.287C68.5195 172.157 68.5998 172.039 68.7006 171.941C68.8014 171.842 68.9207 171.764 69.0517 171.711C69.1826 171.659 69.3227 171.632 69.4639 171.634C69.6051 171.635 69.7445 171.665 69.8744 171.72L71.6895 172.491L74.0681 166.9C74.1233 166.771 74.2035 166.653 74.3041 166.554C74.4047 166.456 74.5238 166.378 74.6545 166.325C74.7852 166.272 74.9251 166.246 75.066 166.247C75.207 166.249 75.3463 166.278 75.4761 166.333L75.4764 166.333L75.4621 166.37L75.477 166.333C75.7388 166.444 75.9457 166.655 76.0521 166.919C76.1585 167.183 76.1559 167.478 76.0447 167.74L73.2463 174.314C73.1814 174.466 73.0825 174.6 72.9571 174.707C72.8318 174.815 72.6834 174.891 72.5236 174.932L72.523 174.934Z" fill="white"/>
<path d="M244.839 245.816H108.251C103.619 245.81 99.1788 243.969 95.9035 240.697C92.6283 237.424 90.786 232.987 90.7808 228.358V68.0708C90.786 63.4425 92.6283 59.0053 95.9035 55.7326C99.1788 52.4599 103.619 50.619 108.251 50.6138H235.324L262.31 72.1065V228.358C262.305 232.987 260.462 237.424 257.187 240.697C253.912 243.969 249.471 245.81 244.839 245.816Z" fill="#E6E6E6"/>
<path d="M108.251 55.6392C104.953 55.6429 101.79 56.9538 99.4581 59.2844C97.1257 61.6149 95.8138 64.7748 95.8101 68.0707V228.358C95.8138 231.654 97.1257 234.814 99.4581 237.145C101.79 239.475 104.953 240.786 108.251 240.79H244.839C248.138 240.786 251.3 239.475 253.632 237.145C255.965 234.814 257.277 231.654 257.28 228.358V74.5275L233.565 55.6392H108.251Z" fill="white"/>
<path d="M218.273 102.247H156.086C155.315 102.247 154.575 101.94 154.029 101.395C153.484 100.85 153.177 100.11 153.177 99.3394C153.177 98.5684 153.484 97.829 154.029 97.2838C154.575 96.7387 155.315 96.4324 156.086 96.4324H218.273C219.045 96.4324 219.785 96.7387 220.33 97.2838C220.876 97.829 221.182 98.5684 221.182 99.3394C221.182 100.11 220.876 100.85 220.33 101.395C219.785 101.94 219.045 102.247 218.273 102.247Z" fill="#315EFB"/>
<path d="M230.274 112.058H156.086C155.315 112.057 154.576 111.75 154.032 111.205C153.487 110.66 153.181 109.921 153.181 109.151C153.181 108.38 153.487 107.642 154.032 107.096C154.576 106.551 155.315 106.245 156.086 106.244H230.274C230.656 106.243 231.035 106.318 231.388 106.464C231.742 106.61 232.063 106.824 232.334 107.094C232.604 107.364 232.819 107.684 232.965 108.037C233.112 108.39 233.187 108.769 233.187 109.151C233.187 109.533 233.112 109.911 232.965 110.264C232.819 110.617 232.604 110.938 232.334 111.208C232.063 111.478 231.742 111.692 231.388 111.838C231.035 111.983 230.656 112.058 230.274 112.058Z" fill="#315EFB"/>
<path d="M218.273 140.4H156.089C155.317 140.4 154.577 140.706 154.032 141.252C153.486 141.797 153.18 142.536 153.18 143.307C153.18 144.078 153.486 144.817 154.032 145.362C154.577 145.908 155.317 146.214 156.089 146.214H218.273C219.045 146.214 219.785 145.908 220.33 145.362C220.876 144.817 221.182 144.078 221.182 143.307C221.182 142.536 220.876 141.797 220.33 141.252C219.785 140.706 219.045 140.4 218.273 140.4Z" fill="#CCCCCC"/>
<path d="M230.275 150.213H156.089C155.317 150.213 154.577 150.519 154.032 151.065C153.486 151.61 153.18 152.349 153.18 153.12C153.18 153.891 153.486 154.63 154.032 155.175C154.577 155.721 155.317 156.027 156.089 156.027H230.275C231.047 156.027 231.787 155.721 232.332 155.175C232.878 154.63 233.184 153.891 233.184 153.12C233.184 152.349 232.878 151.61 232.332 151.065C231.787 150.519 231.047 150.213 230.275 150.213Z" fill="#CCCCCC"/>
<path d="M218.273 190.185H156.086C155.315 190.185 154.575 189.879 154.029 189.334C153.484 188.789 153.177 188.049 153.177 187.278C153.177 186.507 153.484 185.768 154.029 185.223C154.575 184.677 155.315 184.371 156.086 184.371H218.273C219.045 184.371 219.785 184.677 220.33 185.223C220.876 185.768 221.182 186.507 221.182 187.278C221.182 188.049 220.876 188.789 220.33 189.334C219.785 189.879 219.045 190.185 218.273 190.185Z" fill="#CCCCCC"/>
<path d="M230.274 199.997H156.086C155.315 199.996 154.576 199.689 154.032 199.144C153.487 198.599 153.181 197.86 153.181 197.09C153.181 196.319 153.487 195.581 154.032 195.035C154.576 194.49 155.315 194.184 156.086 194.183H230.274C230.656 194.182 231.035 194.257 231.388 194.403C231.742 194.549 232.063 194.763 232.334 195.033C232.604 195.303 232.819 195.623 232.965 195.976C233.112 196.329 233.187 196.708 233.187 197.09C233.187 197.472 233.112 197.85 232.965 198.203C232.819 198.556 232.604 198.877 232.334 199.147C232.063 199.417 231.742 199.631 231.388 199.777C231.035 199.922 230.656 199.997 230.274 199.997Z" fill="#CCCCCC"/>
<path d="M130.19 114.52C135.869 114.52 140.473 109.92 140.473 104.245C140.473 98.5704 135.869 93.9702 130.19 93.9702C124.511 93.9702 119.907 98.5704 119.907 104.245C119.907 109.92 124.511 114.52 130.19 114.52Z" fill="#315EFB"/>
<path d="M129.171 108.165C128.94 108.165 128.715 108.09 128.53 107.952L128.518 107.943L126.102 106.096C125.989 106.01 125.895 105.903 125.824 105.781C125.753 105.659 125.707 105.524 125.689 105.384C125.67 105.245 125.679 105.102 125.716 104.966C125.752 104.83 125.815 104.702 125.901 104.59C125.987 104.478 126.094 104.384 126.216 104.313C126.339 104.243 126.474 104.197 126.614 104.179C126.754 104.16 126.896 104.17 127.032 104.207C127.169 104.243 127.296 104.306 127.408 104.393L128.974 105.592L132.672 100.77C132.758 100.658 132.865 100.565 132.987 100.494C133.109 100.424 133.244 100.378 133.384 100.359C133.524 100.341 133.666 100.35 133.802 100.387C133.938 100.423 134.066 100.486 134.178 100.571L134.178 100.572L134.155 100.604L134.178 100.572C134.404 100.745 134.552 101.001 134.589 101.283C134.626 101.565 134.55 101.85 134.377 102.076L130.026 107.745C129.926 107.876 129.796 107.981 129.648 108.054C129.5 108.126 129.337 108.164 129.172 108.163L129.171 108.165Z" fill="white"/>
<path d="M141.53 148.213C141.531 149.563 141.265 150.899 140.749 152.146C140.232 153.393 139.475 154.526 138.52 155.481C137.566 156.435 136.432 157.192 135.184 157.709C133.937 158.226 132.599 158.492 131.249 158.492C131.161 158.494 131.072 158.49 130.984 158.481C128.962 158.429 127.001 157.783 125.345 156.623C123.689 155.462 122.412 153.84 121.674 151.958C120.936 150.076 120.77 148.019 121.197 146.044C121.623 144.068 122.623 142.262 124.072 140.852C125.521 139.441 127.353 138.489 129.341 138.114C131.328 137.739 133.382 137.959 135.246 138.744C137.109 139.53 138.699 140.848 139.817 142.532C140.935 144.216 141.531 146.192 141.53 148.213Z" fill="#CCCCCC"/>
<path d="M130.19 202.459C135.869 202.459 140.473 197.859 140.473 192.184C140.473 186.509 135.869 181.909 130.19 181.909C124.511 181.909 119.907 186.509 119.907 192.184C119.907 197.859 124.511 202.459 130.19 202.459Z" fill="#CCCCCC"/>
<path d="M261.785 72.7981H240.646C239.103 72.7981 237.623 72.1856 236.531 71.0952C235.44 70.0048 234.827 68.526 234.827 66.984V51.3832C234.827 51.3149 234.846 51.2479 234.883 51.1901C234.919 51.1322 234.971 51.0858 235.032 51.056C235.094 51.0263 235.163 51.0145 235.231 51.022C235.299 51.0294 235.363 51.0559 235.417 51.0983L262.01 72.1499C262.07 72.1967 262.113 72.2608 262.134 72.3333C262.155 72.4057 262.153 72.4829 262.128 72.5542C262.103 72.6254 262.057 72.6872 261.995 72.7309C261.934 72.7746 261.86 72.7981 261.785 72.7981Z" fill="#CCCCCC"/>
<path d="M141.53 148.213C141.53 149.563 141.265 150.899 140.748 152.146C140.232 153.393 139.475 154.526 138.52 155.481C137.565 156.435 136.432 157.192 135.184 157.709C133.937 158.226 132.599 158.492 131.249 158.492C131.16 158.494 131.072 158.49 130.984 158.481C129.656 155.17 129.144 151.589 129.491 148.039C129.838 144.489 131.035 141.074 132.98 138.083C135.372 138.493 137.542 139.734 139.107 141.588C140.671 143.442 141.529 145.788 141.53 148.213Z" fill="#E35540"/>
<path d="M153.177 143.31C153.178 142.538 153.486 141.799 154.031 141.254C154.577 140.709 155.317 140.402 156.089 140.4H171.585C172.49 142.24 173.133 144.196 173.496 146.214H156.089C155.317 146.214 154.578 145.908 154.032 145.363C153.486 144.819 153.179 144.08 153.177 143.31Z" fill="#E35540"/>
<path d="M173.856 150.213C173.857 152.177 173.597 154.132 173.083 156.027H156.089C155.317 156.027 154.577 155.721 154.032 155.175C153.486 154.63 153.18 153.891 153.18 153.12C153.18 152.349 153.486 151.61 154.032 151.065C154.577 150.519 155.317 150.213 156.089 150.213H173.856Z" fill="#E35540"/>
<path d="M212.197 186.067C211.758 186.786 211.052 187.301 210.233 187.499C209.414 187.698 208.55 187.563 207.831 187.124L170.769 164.536C170.413 164.319 170.103 164.034 169.858 163.697C169.612 163.36 169.435 162.979 169.336 162.573C169.238 162.168 169.221 161.748 169.285 161.336C169.35 160.924 169.494 160.529 169.712 160.173C169.929 159.817 170.214 159.508 170.551 159.262C170.888 159.016 171.27 158.839 171.676 158.741C172.081 158.643 172.502 158.626 172.914 158.69C173.326 158.755 173.722 158.899 174.078 159.116L211.139 181.705C211.858 182.143 212.374 182.849 212.572 183.667C212.77 184.485 212.635 185.349 212.197 186.067Z" fill="#3F3D56"/>
<path d="M175.135 163.479C172.518 167.766 168.687 171.182 164.127 173.294C159.567 175.406 154.483 176.119 149.517 175.344C144.552 174.569 139.928 172.339 136.23 168.938C132.532 165.537 129.927 161.116 128.743 156.235C127.56 151.354 127.852 146.232 129.582 141.517C131.311 136.802 134.402 132.705 138.462 129.745C142.522 126.784 147.369 125.093 152.391 124.886C157.412 124.678 162.383 125.963 166.674 128.579C172.421 132.091 176.54 137.738 178.126 144.28C179.713 150.823 178.637 157.728 175.135 163.479ZM137.17 140.339C135.207 143.555 134.243 147.28 134.398 151.043C134.554 154.807 135.823 158.439 138.045 161.482C140.267 164.525 143.342 166.841 146.881 168.137C150.42 169.433 154.265 169.652 157.928 168.765C161.592 167.878 164.91 165.926 167.463 163.155C170.016 160.383 171.689 156.918 172.271 153.197C172.853 149.475 172.318 145.665 170.732 142.248C169.147 138.83 166.583 135.959 163.365 133.998C159.049 131.374 153.866 130.568 148.955 131.756C144.044 132.945 139.806 136.032 137.17 140.339Z" fill="#3F3D56"/>
<path d="M256.554 154.328C263.735 154.328 269.557 148.511 269.557 141.335C269.557 134.159 263.735 128.342 256.554 128.342C249.373 128.342 243.551 134.159 243.551 141.335C243.551 148.511 249.373 154.328 256.554 154.328Z" fill="#FFB7B7"/>
<path d="M255.714 214.174C255.463 213.393 255.38 212.568 255.471 211.753C255.561 210.938 255.823 210.152 256.239 209.445C256.655 208.738 257.216 208.127 257.884 207.652C258.553 207.177 259.315 206.848 260.12 206.688C260.375 206.638 260.633 206.606 260.892 206.593L274.589 184.627L262.078 172.742C261.6 172.288 261.216 171.743 260.95 171.14C260.684 170.538 260.539 169.888 260.526 169.229C260.512 168.57 260.629 167.915 260.87 167.301C261.111 166.688 261.472 166.128 261.93 165.655C262.389 165.181 262.937 164.803 263.543 164.543C264.149 164.282 264.8 164.144 265.46 164.136C266.12 164.128 266.774 164.251 267.386 164.498C267.997 164.744 268.554 165.11 269.024 165.572L286.298 182.592L286.333 182.635C286.867 183.447 287.125 184.41 287.069 185.381C287.012 186.351 286.644 187.278 286.018 188.022L266.827 210.702C266.884 210.884 266.932 211.069 266.97 211.256C267.131 212.06 267.119 212.889 266.937 213.688C266.754 214.488 266.405 215.24 265.911 215.895C265.418 216.55 264.791 217.093 264.073 217.489C263.354 217.886 262.56 218.126 261.742 218.194C261.577 218.209 261.412 218.216 261.249 218.216C260.018 218.211 258.82 217.817 257.826 217.091C256.832 216.365 256.093 215.344 255.714 214.174Z" fill="#FFB7B7"/>
<path d="M235.138 322.163L228.648 322.162L225.56 297.147L235.139 297.148L235.138 322.163Z" fill="#FFB7B7"/>
<path d="M236.793 328.45L215.865 328.449V328.184C215.865 327.115 216.076 326.057 216.485 325.069C216.895 324.082 217.495 323.185 218.251 322.429C219.008 321.673 219.906 321.073 220.894 320.664C221.882 320.255 222.942 320.045 224.011 320.045H224.012L236.794 320.045L236.793 328.45Z" fill="#2F2E41"/>
<path d="M299.65 313.196L294.073 316.514L278.612 296.599L286.843 291.702L299.65 313.196Z" fill="#FFB7B7"/>
<path d="M304.291 317.751L286.309 328.449L286.174 328.222C285.626 327.304 285.265 326.287 285.112 325.229C284.958 324.171 285.014 323.093 285.277 322.057C285.54 321.021 286.004 320.047 286.644 319.19C287.284 318.334 288.086 317.611 289.005 317.064L289.006 317.064L299.988 310.53L304.291 317.751Z" fill="#2F2E41"/>
<path d="M224.742 311.146C220.394 259.988 217.807 212.463 233.701 193.076L233.824 192.926L260.573 203.618L260.617 203.713C260.707 203.91 269.603 223.462 267.528 236.614L274.126 266.941L295.639 302.935C295.812 303.224 295.922 303.548 295.96 303.883C295.999 304.218 295.966 304.558 295.863 304.879C295.761 305.201 295.591 305.497 295.365 305.748C295.139 305.999 294.862 306.199 294.553 306.335L285.204 310.445C284.677 310.674 284.084 310.706 283.535 310.535C282.986 310.363 282.517 310 282.214 309.511L258.812 271.381L245.594 242.134C245.522 241.975 245.4 241.845 245.246 241.762C245.093 241.68 244.916 241.65 244.744 241.677C244.572 241.705 244.414 241.788 244.294 241.915C244.174 242.041 244.099 242.204 244.08 242.377L236.753 311.198C236.692 311.783 236.416 312.325 235.978 312.718C235.541 313.111 234.973 313.328 234.384 313.327H227.116C226.52 313.324 225.946 313.098 225.507 312.695C225.068 312.292 224.795 311.74 224.742 311.146Z" fill="#2F2E41"/>
<path d="M233.791 193.482L233.664 193.421L233.644 193.281C232.645 186.293 233.827 178.528 237.159 170.203C238.801 166.129 241.854 162.779 245.76 160.765C249.667 158.751 254.168 158.206 258.442 159.23C260.905 159.836 263.214 160.947 265.225 162.492C267.235 164.037 268.903 165.982 270.121 168.204C271.325 170.403 272.058 172.829 272.274 175.326C272.49 177.823 272.185 180.338 271.378 182.712C267.177 194.985 261.729 206.468 261.674 206.582L261.56 206.822L233.791 193.482Z" fill="#315EFB"/>
<path d="M204.607 176.076C205.251 175.568 205.995 175.201 206.791 175.001C207.587 174.8 208.416 174.77 209.224 174.911C210.032 175.053 210.801 175.364 211.481 175.824C212.161 176.283 212.735 176.881 213.168 177.578C213.303 177.799 213.424 178.03 213.527 178.268L238.915 183.395L245.674 167.523C245.933 166.917 246.308 166.367 246.78 165.907C247.252 165.446 247.811 165.084 248.424 164.84C249.037 164.597 249.692 164.477 250.351 164.488C251.011 164.499 251.661 164.64 252.266 164.903C252.871 165.167 253.417 165.548 253.873 166.023C254.33 166.499 254.687 167.06 254.926 167.675C255.164 168.29 255.278 168.945 255.261 169.604C255.244 170.263 255.097 170.912 254.827 171.514L244.922 193.642L244.895 193.689C244.32 194.474 243.508 195.053 242.578 195.339C241.649 195.626 240.651 195.606 239.734 195.282L211.753 185.262C211.603 185.379 211.446 185.488 211.285 185.589C210.587 186.021 209.806 186.301 208.993 186.41C208.179 186.519 207.352 186.455 206.565 186.223C205.778 185.99 205.049 185.594 204.426 185.06C203.803 184.527 203.3 183.868 202.95 183.126C202.878 182.976 202.814 182.825 202.756 182.672C202.33 181.518 202.28 180.259 202.612 179.074C202.944 177.89 203.643 176.84 204.607 176.076Z" fill="#FFB7B7"/>
<path d="M303.528 155.249C302.275 153.032 300.451 151 298.038 150.181C294.923 149.122 291.549 150.249 288.346 151.002C285.878 151.582 283.3 151.937 280.813 151.447C278.325 150.958 275.926 149.512 274.794 147.245C273.129 143.91 274.532 139.934 274.43 136.208C274.378 134.181 273.866 132.191 272.933 130.39C271.999 128.588 270.669 127.022 269.042 125.809C267.414 124.597 265.533 123.769 263.539 123.388C261.544 123.008 259.49 123.084 257.53 123.613C254.463 122.728 251.686 122.646 249.789 125.002C247.402 125.002 245.112 125.95 243.425 127.636C241.737 129.323 240.789 131.61 240.789 133.995H249.394C248.986 136.188 249.453 138.453 250.694 140.307C252.213 142.537 254.854 144.15 255.363 146.8C255.856 149.367 254.109 151.804 252.277 153.67C250.445 155.536 248.319 157.386 247.747 159.937C247.397 161.873 247.795 163.871 248.861 165.525C249.925 167.16 251.246 168.613 252.771 169.829C259.646 175.714 267.816 179.891 276.615 182.018C282.811 183.508 289.588 183.895 295.341 181.152C297.642 180.056 299.692 178.497 301.365 176.575C303.038 174.653 304.298 172.407 305.066 169.978C305.834 167.549 306.093 164.988 305.829 162.454C305.564 159.92 304.781 157.468 303.528 155.249Z" fill="#2F2E41"/>
<path d="M305.471 329H204.883C204.742 329 204.608 328.944 204.508 328.845C204.409 328.746 204.353 328.611 204.353 328.471C204.353 328.331 204.409 328.196 204.508 328.097C204.608 327.998 204.742 327.942 204.883 327.942H305.471C305.611 327.942 305.746 327.998 305.845 328.097C305.944 328.196 306 328.331 306 328.471C306 328.611 305.944 328.746 305.845 328.845C305.746 328.944 305.611 329 305.471 329Z" fill="#CCCCCC"/>
</g>
<defs>
<clipPath id="clip0">
<rect width="306" height="329" fill="white"/>
</clipPath>
</defs>
</svg>
