<svg width="788" height="548" viewBox="0 0 788 548" fill="none" xmlns="http://www.w3.org/2000/svg">
<g clip-path="url(#clip0)">
<path d="M78.9243 93.2109C100.226 93.2109 117.495 75.9685 117.495 54.6989C117.495 33.4292 100.226 16.1868 78.9243 16.1868C57.6225 16.1868 40.354 33.4292 40.354 54.6989C40.354 75.9685 57.6225 93.2109 78.9243 93.2109Z" fill="#E35540"/>
<path opacity="0.1" d="M74.2121 133.098C90.4068 169.622 69.7486 211.68 45.4316 243.349C37.2927 253.969 28.3076 265.103 27.1793 278.424C25.8187 294.718 36.8696 309.696 49.978 319.487C73.8885 337.331 106.543 342.848 135 333.843C159.591 326.065 180.266 308.494 205.073 301.412C246.555 289.549 290.526 309.215 326.052 333.719C351.198 351.041 378.129 372.148 408.444 368.437C429.774 365.828 447.877 350.875 460.165 333.272C466.096 324.772 471.257 315.246 479.894 309.513C485.029 306.1 491.061 304.294 497.092 303.002C552.173 291.247 610.63 319.934 664.98 305.181C701.692 295.24 730.962 266.246 749.164 232.887C767.367 199.527 775.862 161.86 782.939 124.541C787.967 98.0323 792.14 69.3947 780.583 45.015C768.354 19.2022 740.046 3.55384 711.598 0.621319C683.149 -2.3112 654.617 5.78222 628.409 17.1975C595.663 31.4956 563.564 51.5096 527.822 51.5759C503.48 51.6256 480.267 42.2979 456.995 35.182C418.085 23.2945 377.623 17.388 337.302 11.9372C298.698 6.7183 259.713 1.86391 220.877 4.94554C193.399 7.12422 169.132 17.6117 142.467 22.4661C125.086 25.6306 107.622 23.2945 90.5644 28.5962C69.5577 35.1571 47.9537 50.3582 46.7922 74.2988C45.6971 97.0879 65.6252 113.722 74.2121 133.098Z" fill="#315EFB"/>
<path d="M499.365 165.621C495.823 156.401 486.688 134.73 480.673 139.029C473.074 144.464 488.273 168.471 488.273 168.471C488.704 172.878 480.159 182.048 475.579 186.621C475.579 186.256 475.579 186.049 475.579 186.049C475.536 186.223 475.469 186.39 475.38 186.546L474.999 186.339C474.897 186.704 474.712 187.042 474.459 187.325C474.459 186.704 474.418 186.339 474.418 186.339C473.538 190.059 458.19 194.772 458.19 194.772C458.19 194.772 457.775 194.772 457.062 194.772C452.797 194.772 441.696 193.811 436.553 185.594C433.892 181.142 430.489 177.177 426.489 173.872C425.119 172.8 423.455 172.17 421.719 172.066C407.507 171.155 395.999 163.972 393.701 162.44L393.278 162.15L393.187 162.415C392.648 161.645 392.125 160.824 391.636 159.98L391.387 159.524C394.827 157.8 397.721 155.158 399.75 151.891C401.778 148.625 402.86 144.861 402.877 141.018C402.877 140.877 402.877 140.728 402.877 140.587C404.128 138.429 404.786 135.98 404.785 133.487V131.002L408.029 128.119C409.514 126.802 411.049 125.411 411.804 123.596C412.107 122.862 412.243 122.07 412.202 121.277C412.275 120.598 412.173 119.911 411.906 119.282C411.639 118.653 411.216 118.102 410.676 117.682C408.187 115.967 404.039 117.682 402.238 115.296C401.409 114.219 401.558 112.753 401.152 111.485C400.322 108.909 397.335 107.517 394.572 107.476C391.81 107.434 389.163 108.437 386.508 109.191C380.931 110.772 375.109 111.316 369.335 110.798C367.772 110.52 366.169 110.577 364.63 110.963C363.691 111.351 362.855 111.955 362.192 112.725C361.529 113.494 361.057 114.409 360.814 115.395C360.609 116.136 360.486 116.897 360.449 117.665C358.134 120.272 356.854 123.633 356.848 127.117V133.487C356.853 136.888 358.074 140.176 360.291 142.757C360.553 145.755 361.466 148.659 362.966 151.269C364.466 153.878 366.518 156.13 368.978 157.867C368.978 158.033 368.978 158.201 368.978 158.372L369.086 158.439C368.951 160.414 368.646 162.373 368.173 164.295V163.873C368.173 163.873 356.558 170.045 344.113 170.194H342.744C340.29 170.111 337.902 171.005 336.107 172.679C332.423 176.142 325.969 181.617 322.003 181.617C321.173 181.617 300.233 185.701 296.765 186.381L290.286 180.043L290.087 180.416L289.705 180.043C288.996 180.098 288.292 180.2 287.598 180.35C284.279 176.423 277.642 167.294 276.107 155.042C276.107 155.042 290.435 138.748 285.167 123.563C280.67 110.624 268.283 138.358 264.766 146.717C264.15 148.176 264.074 149.805 264.55 151.315L276.19 188.775C275.082 191.677 274.764 194.822 275.269 197.887H275.136L283.615 208.747C283.615 208.747 289.995 211.464 299.976 211.415C307.291 211.427 314.54 210.037 321.331 207.322H323.297L322.924 207.463H333.021L339.442 226.856C339.227 228.62 336.124 253.249 333.635 258.757C332.896 260.598 332.562 262.576 332.656 264.556C332.786 268.362 333.408 272.134 334.506 275.781L340.131 275.574L339.915 276.013C335.153 285.763 327.197 303.135 322.493 319.371L314.304 335.939L320.443 410.246H320.692L321.165 410.321C321.829 410.42 322.824 410.569 324.135 410.735L323.654 411.563L310.123 433.93C310.123 433.93 300.474 453.654 321.821 449.934C321.821 449.934 329.711 447.648 332.93 434.195L346.967 421.048C346.967 421.048 347.623 412.317 343.649 408.829C343.4 404.795 342.769 393.015 343.74 390.182C344.91 386.753 338.762 347.313 338.762 347.313C338.762 347.313 360.98 301.295 374.437 300.152C375.423 300.083 376.414 300.213 377.349 300.533C388.408 304.129 401.807 330.828 405.748 339.137L405.93 339.518V339.592L406.08 339.915V340.006L406.212 340.288V340.363L406.329 340.619V340.677L406.428 340.885V340.967L406.503 341.125V341.191L406.553 341.307V341.373V341.448L406.594 341.547L408.345 393.28L408.519 393.372H408.602L408.452 394.44L407.689 399.783C407.689 399.783 417.338 420.079 416.749 422.647C416.16 425.215 423.179 435.512 433.118 432.654C443.057 429.796 437.142 413.684 437.142 413.684L427.568 393.985L427.144 393.107C428.098 392.522 428.998 391.854 429.833 391.11C429.833 391.11 426.912 369.961 429.833 365.388C432.753 360.816 433.632 339.948 433.632 339.948C433.632 339.948 431.583 325.659 428.074 319.371L413.372 266.975C417.778 271.067 421.204 272.666 424.066 272.558H424.539C425.798 272.582 427.04 272.273 428.14 271.664C428.731 271.331 429.287 270.939 429.799 270.496C429.897 270.411 429.989 270.32 430.073 270.222C434.163 266.793 425.394 253.356 420.424 245.371C415.637 237.666 422.233 216.733 422.731 215.176C423.174 214.851 423.649 214.573 424.149 214.347C425.178 213.907 426.282 213.668 427.402 213.643C432.164 213.809 438.021 216.542 445.272 217.917C450.312 218.773 455.418 219.17 460.53 219.102H460.828C462.861 219.102 464.703 219.061 466.196 219.003C467.558 218.949 468.891 218.59 470.095 217.951C471.127 217.35 472.062 216.596 472.866 215.714L485.593 201.358L485.261 201.515C485.878 199.887 485.878 198.09 485.261 196.462L498.71 173.267C499.389 172.124 499.8 170.843 499.914 169.519C500.027 168.195 499.84 166.862 499.365 165.621Z" fill="url(#paint0_linear)"/>
<path d="M348.27 419.085L334.722 432.049C331.619 445.304 323.994 447.549 323.994 447.549C303.394 451.21 312.703 431.809 312.703 431.809L325.77 409.733L327.379 407.007C327.379 407.007 336.696 404.191 342.902 405.881C343.685 406.095 344.409 406.486 345.018 407.024C348.909 410.395 348.27 419.085 348.27 419.085Z" fill="#444176"/>
<path d="M431.807 430.641C422.208 433.458 415.438 423.318 416.044 420.775C416.649 418.232 407.274 398.259 407.274 398.259L408.005 392.991L408.685 388.111L424.448 389.238L425.933 392.353L435.176 411.779C435.176 411.779 441.406 427.825 431.807 430.641Z" fill="#444176"/>
<path opacity="0.1" d="M345.167 409.227C343.682 411.77 331.644 410.486 325.778 409.691L327.388 406.966C327.388 406.966 336.705 404.149 342.91 405.839C343.694 406.053 344.418 406.445 345.026 406.982C345.109 408.357 345.167 409.227 345.167 409.227Z" fill="black"/>
<path opacity="0.1" d="M425.95 392.336C417.877 397.704 409.282 393.645 407.988 392.974L408.668 388.095L424.431 389.222L425.95 392.336Z" fill="black"/>
<path d="M428.14 364.138C425.319 368.644 428.14 389.503 428.14 389.503C418.823 397.961 407.822 391.756 407.822 391.756L406.163 340.752C406.163 340.752 387.819 298.761 374.835 299.887C361.851 301.014 340.405 346.385 340.405 346.385C340.405 346.385 346.328 385.27 345.2 388.633C344.072 391.997 345.2 408.357 345.2 408.357C343.226 411.737 322.625 408.357 322.625 408.357L316.702 335.086L324.567 318.733C329.088 302.729 336.771 285.597 341.367 275.988C343.649 271.208 345.175 268.292 345.175 268.292L360.192 265.169L408.934 255.079L426.448 318.733C429.832 324.93 431.807 339.021 431.807 339.021C431.807 339.021 430.961 359.631 428.14 364.138Z" fill="#2F2E41"/>
<g opacity="0.1">
<path opacity="0.1" d="M412.335 391.757L410.676 340.752C410.676 340.752 392.332 298.761 379.348 299.888C378.768 299.944 378.196 300.072 377.647 300.269C390.308 304.469 406.162 340.752 406.162 340.752L407.822 391.757C411.283 393.517 415.185 394.229 419.047 393.803C416.706 393.522 414.434 392.829 412.335 391.757Z" fill="black"/>
<path opacity="0.1" d="M327.105 408.382L321.182 335.111L329.08 318.733C333.602 302.729 341.284 285.598 345.88 275.988C348.162 271.208 349.688 268.292 349.688 268.292L364.705 265.169L409.199 255.933L408.959 255.046L360.192 265.169L345.175 268.292C345.175 268.292 343.649 271.208 341.367 275.988C336.754 285.598 329.088 302.762 324.567 318.733L316.668 335.078L322.592 408.349C322.592 408.349 333.842 410.197 340.513 409.791C336.023 409.547 331.548 409.077 327.105 408.382Z" fill="black"/>
</g>
<path d="M292.783 181.394C292.783 181.394 276.696 182.222 278.953 199.146L283.466 199.709L290.236 192.386L293.621 186.19V184.782L292.783 181.394Z" fill="#E35540"/>
<path opacity="0.1" d="M292.783 181.394C292.783 181.394 276.696 182.222 278.953 199.146L283.466 199.709L290.236 192.386L293.621 186.19V184.782L292.783 181.394Z" fill="black"/>
<path d="M471.746 187.59C471.746 187.59 485.021 194.631 481.628 202.808L477.396 204.464L471.755 201.366L470.925 194.043L471.489 188.973L471.746 187.59Z" fill="#E35540"/>
<path opacity="0.1" d="M471.746 187.59C471.746 187.59 485.021 194.631 481.628 202.808L477.396 204.464L471.755 201.366L470.925 194.043L471.489 188.973L471.746 187.59Z" fill="black"/>
<path d="M386.517 114.882H375.225C365.562 114.882 357.728 122.704 357.728 132.353C357.728 142.002 365.562 149.824 375.225 149.824H386.517C396.18 149.824 404.014 142.002 404.014 132.353C404.014 122.704 396.18 114.882 386.517 114.882Z" fill="#88455E"/>
<path d="M292.675 183.788L282.794 199.527L281.964 196.727L268.541 153.054C268.082 151.565 268.155 149.964 268.748 148.523C272.141 140.289 284.105 112.902 288.444 125.701C293.521 140.612 279.691 156.699 279.691 156.699C281.267 169.755 288.61 179.215 291.497 182.495C292.227 183.349 292.675 183.788 292.675 183.788Z" fill="#FFB7B7"/>
<path d="M469.631 190.547C469.631 190.547 485.154 175.893 484.565 169.978C484.565 169.978 469.888 146.311 477.23 140.985C483.038 136.743 491.857 158.116 495.275 167.203C495.727 168.414 495.909 169.708 495.807 170.996C495.705 172.284 495.323 173.534 494.686 174.659L476.135 207.455L469.631 190.547Z" fill="#FFB7B7"/>
<path d="M369.152 149.691C369.152 149.691 371.973 167.725 363.793 174.493C355.612 181.261 387.222 181.22 387.222 181.22L398.513 170.79C398.513 170.79 385.529 158.671 389.478 149.658L369.152 149.691Z" fill="#FFB7B7"/>
<path opacity="0.1" d="M368.588 170.26C368.588 170.26 380.726 179.281 392.855 169.134L412.609 209.998L411.481 259.876C411.481 259.876 370.554 281.008 353.621 268.052C336.688 255.096 350.8 248.328 350.8 248.328L346.851 210.007L351.082 185.204C351.082 185.204 358.698 173.367 359.271 173.367C359.843 173.367 368.588 170.26 368.588 170.26Z" fill="black"/>
<path d="M368.588 169.697C368.588 169.697 380.726 178.734 392.863 168.57L412.617 209.435L411.489 259.312C411.489 259.312 370.562 280.445 353.629 267.489C336.696 254.533 350.808 247.765 350.808 247.765L346.859 209.443L351.091 184.641C351.091 184.641 358.707 172.803 359.279 172.803C359.852 172.803 368.588 169.697 368.588 169.697Z" fill="#EBF1F6"/>
<path opacity="0.1" d="M368.588 165.48C368.588 165.48 357.081 172.025 344.586 171.701C343.414 171.665 342.246 171.861 341.151 172.279C340.056 172.698 339.055 173.329 338.206 174.137C334.647 177.55 328.416 182.951 324.558 182.951C323.729 182.951 299.719 187.739 299.719 187.739L293.372 181.402C293.372 181.402 283.914 199.859 279.401 199.014L287.589 209.725C287.589 209.725 303.112 216.484 323.43 208.317H335.286L341.492 227.477C341.492 227.477 338.389 253.406 335.85 259.039C333.311 264.672 336.68 275.665 336.68 275.665L358.972 274.837C358.972 274.837 360.101 263.844 361.793 262.411C363.486 260.978 355.869 212.533 355.869 212.533C355.869 212.533 350.792 185.196 369.418 175.338L368.588 165.48Z" fill="black"/>
<path opacity="0.1" d="M360.184 265.202C359.363 268.545 358.778 271.942 358.433 275.367L341.367 276.013C343.649 271.233 345.175 268.317 345.175 268.317L360.184 265.202Z" fill="black"/>
<path opacity="0.1" d="M292.675 183.788L282.794 199.527L281.964 196.727C285.59 193.132 289.838 185.618 291.53 182.487C292.227 183.349 292.675 183.788 292.675 183.788Z" fill="black"/>
<path d="M368.588 165.48C368.588 165.48 356.508 172.025 344.022 171.701C342.85 171.665 341.682 171.861 340.587 172.279C339.492 172.698 338.491 173.329 337.642 174.137C334.083 177.55 327.852 182.951 323.994 182.951C323.165 182.951 299.154 187.739 299.154 187.739L292.783 181.394C292.783 181.394 283.325 199.85 278.812 199.005L287 209.717C287 209.717 302.523 216.476 322.841 208.308H334.697L340.902 227.461C340.902 227.461 337.8 253.39 335.261 259.023C332.722 264.656 336.09 275.648 336.09 275.648L358.383 274.82C358.383 274.82 359.511 263.827 361.204 262.394C362.896 260.961 355.28 212.516 355.28 212.516C355.28 212.516 350.203 185.179 368.828 175.322L368.588 165.48Z" fill="#E35540"/>
<path opacity="0.1" d="M392.863 163.774C392.863 163.774 404.379 172.538 419.752 173.549C421.434 173.654 423.043 174.276 424.357 175.33C428.234 178.614 431.52 182.536 434.072 186.927C440.278 197.075 455.518 195.949 455.518 195.949C455.518 195.949 470.336 191.301 471.182 187.665C471.182 187.665 471.605 207.546 480.922 202.741L468.668 216.841C467.896 217.731 466.949 218.455 465.886 218.966C464.823 219.478 463.666 219.766 462.488 219.815C457.883 219.997 449.885 220.055 443.132 218.746C432.969 216.774 425.635 211.986 420.275 216.211C420.275 216.211 413.223 238.188 418.018 246.083C422.814 253.978 431.293 267.215 427.335 270.603C423.378 273.992 418.583 273.702 410.684 265.534C402.786 257.366 401.932 243.556 401.932 243.556L403.906 208.051C403.906 208.051 396.29 181.278 388.972 175.926L392.863 163.774Z" fill="black"/>
<path opacity="0.1" d="M482.042 202.385L469.755 216.543C468.939 217.482 467.928 218.233 466.793 218.746C465.784 219.201 464.697 219.457 463.591 219.5C458.986 219.69 450.988 219.748 444.235 218.431C434.727 216.584 427.692 212.276 422.432 215.184C422.059 215.389 421.704 215.625 421.37 215.888C421.37 215.888 414.318 237.865 419.113 245.76C423.909 253.655 432.388 266.892 428.43 270.281C427.768 270.862 427.025 271.345 426.223 271.714C422.673 273.312 418.267 271.929 411.779 265.211C403.881 257.035 403.026 243.233 403.026 243.233L405.001 207.728C405.001 207.728 397.385 180.955 390.067 175.603L393.295 164.047C395.518 165.555 406.619 172.638 420.341 173.541C422.023 173.646 423.632 174.268 424.946 175.322C428.823 178.606 432.108 182.529 434.661 186.919C440.867 197.067 456.107 195.94 456.107 195.94C459.761 194.777 463.329 193.359 466.785 191.699C468.95 190.639 470.859 189.479 471.763 188.385C472.017 188.1 472.201 187.76 472.302 187.391C472.302 187.391 472.734 207.173 482.042 202.385Z" fill="black"/>
<path d="M481.478 202.667L469.199 216.841C468.524 217.619 467.715 218.27 466.81 218.763C465.651 219.391 464.362 219.746 463.043 219.798C458.439 219.989 450.441 220.047 443.688 218.729C434.52 216.948 427.642 212.873 422.457 215.2C421.865 215.458 421.307 215.789 420.798 216.186C420.798 216.186 413.746 238.164 418.541 246.058C423.336 253.953 431.815 267.191 427.858 270.579C427.346 271.019 426.79 271.405 426.199 271.73C422.548 273.743 418.035 272.559 411.19 265.509C403.292 257.333 402.438 243.532 402.438 243.532L404.412 208.027C404.412 208.027 396.796 181.253 389.479 175.901L392.863 163.782L393.27 164.064C395.493 165.571 406.594 172.654 420.317 173.557C421.999 173.662 423.607 174.285 424.921 175.338C428.798 178.623 432.084 182.545 434.636 186.936C440.842 197.083 456.083 195.957 456.083 195.957C459.736 194.793 463.304 193.376 466.76 191.715C469.324 190.407 471.415 188.973 471.738 187.665C471.738 187.665 471.738 187.921 471.738 188.377C471.987 191.798 473.232 206.9 481.478 202.667Z" fill="#E35540"/>
<path opacity="0.1" d="M389.727 150.114H368.986C369.442 153.406 369.573 156.736 369.376 160.054C372.542 162.279 376.255 163.601 380.117 163.878C383.979 164.155 387.843 163.378 391.295 161.628C389.304 157.95 388.093 153.775 389.727 150.114Z" fill="black"/>
<path d="M381.572 163.492C392.949 163.492 402.172 154.283 402.172 142.923C402.172 131.563 392.949 122.354 381.572 122.354C370.195 122.354 360.972 131.563 360.972 142.923C360.972 154.283 370.195 163.492 381.572 163.492Z" fill="#FFB7B7"/>
<path opacity="0.1" d="M377.291 139.262C379.589 138.988 381.887 138.176 384.152 138.632C386.21 139.046 387.96 140.463 390.018 140.894C393.983 141.722 397.667 138.806 400.662 136.089L407.133 130.207C408.569 128.907 410.045 127.54 410.784 125.75C411.522 123.961 411.265 121.608 409.689 120.482C407.324 118.825 403.251 120.482 401.542 118.129C400.77 117.069 400.886 115.644 400.488 114.377C399.658 111.842 396.804 110.458 394.133 110.425C391.461 110.392 388.906 111.37 386.351 112.082C380.967 113.641 375.339 114.178 369.758 113.664C368.251 113.389 366.703 113.442 365.219 113.822C364.306 114.211 363.497 114.809 362.857 115.567C362.218 116.325 361.765 117.223 361.536 118.187C360.258 122.694 362.44 129.959 364.63 133.993C366.821 138.027 372.919 139.8 377.291 139.262Z" fill="black"/>
<path d="M377.291 138.698C379.589 138.425 381.887 137.613 384.152 138.069C386.21 138.483 387.96 139.899 390.018 140.33C393.983 141.158 397.667 138.242 400.662 135.525L407.133 129.644C408.569 128.343 410.045 126.976 410.784 125.187C411.522 123.398 411.265 121.045 409.689 119.918C407.324 118.262 403.251 119.918 401.542 117.566C400.77 116.505 400.886 115.081 400.488 113.813C399.658 111.278 396.804 109.895 394.133 109.862C391.461 109.829 388.906 110.806 386.351 111.518C380.967 113.078 375.339 113.614 369.758 113.101C368.251 112.825 366.703 112.879 365.219 113.258C364.306 113.647 363.497 114.245 362.857 115.003C362.218 115.762 361.765 116.659 361.536 117.624C360.258 122.13 362.44 129.395 364.63 133.429C366.821 137.464 372.919 139.195 377.291 138.698Z" fill="#88455E"/>
<path opacity="0.1" d="M341.359 227.61C341.359 227.61 345.872 228.173 348.129 230.99C350.385 233.806 354.335 234.651 354.335 234.651" fill="black"/>
<path opacity="0.1" d="M300.714 190.407C300.714 190.407 304.398 198.616 302.125 199.445C299.852 200.273 300.714 206.204 300.714 206.204" fill="black"/>
<g opacity="0.1">
<path opacity="0.1" d="M301.984 187.59C301.984 187.59 325.969 182.802 326.799 182.802C330.665 182.802 336.887 177.401 340.446 173.988C341.529 172.952 342.86 172.213 344.312 171.842H344.005C342.833 171.806 341.666 172.002 340.57 172.42C339.475 172.838 338.474 173.47 337.625 174.278C334.066 177.691 327.836 183.092 323.978 183.092C323.306 183.092 307.957 186.132 301.727 187.366L301.984 187.59Z" fill="black"/>
<path opacity="0.1" d="M368.621 166.665V165.613C362.851 168.55 356.642 170.534 350.236 171.486C356.592 170.921 362.807 169.291 368.621 166.665Z" fill="black"/>
<path opacity="0.1" d="M338.961 275.508C338.961 275.508 335.576 264.515 338.132 258.882C340.687 253.249 343.773 227.32 343.773 227.32L337.584 208.159H325.695L324.973 208.441H334.722L340.903 227.61C340.903 227.61 337.8 253.539 335.261 259.172C332.722 264.805 336.091 275.798 336.091 275.798L358.383 274.969V274.795L338.961 275.508Z" fill="black"/>
</g>
<g opacity="0.1">
<path opacity="0.1" d="M428.14 266.072C427.628 266.512 427.072 266.898 426.481 267.224C422.83 269.237 418.317 268.052 411.472 261.002C405.2 254.516 403.375 244.434 402.885 240.615L402.719 243.531C402.719 243.531 403.549 257.341 411.472 265.509C418.317 272.583 422.83 273.743 426.481 271.73C427.072 271.404 427.628 271.019 428.14 270.579C429.326 269.56 429.393 267.646 428.77 265.26C428.616 265.57 428.402 265.846 428.14 266.072Z" fill="black"/>
<path opacity="0.1" d="M477.488 203.089L469.498 212.309C468.823 213.087 468.014 213.738 467.109 214.231C465.949 214.86 464.66 215.214 463.342 215.267C458.738 215.457 450.74 215.515 443.986 214.198C434.819 212.417 427.941 208.341 422.756 210.669C422.163 210.927 421.606 211.258 421.096 211.655C421.096 211.655 416.542 225.854 417.239 235.521C417.778 226.483 421.096 216.161 421.096 216.161C421.606 215.764 422.163 215.433 422.756 215.176C427.949 212.848 434.819 216.923 443.986 218.705C450.74 220.013 458.729 219.955 463.342 219.773C464.66 219.721 465.949 219.366 467.109 218.738C468.012 218.252 468.821 217.61 469.498 216.841L481.785 202.683C481.149 203.079 480.43 203.321 479.684 203.392C478.938 203.462 478.186 203.359 477.488 203.089Z" fill="black"/>
</g>
<path d="M116.682 304.56C116.781 304.656 116.908 304.717 117.044 304.735C117.181 304.753 117.32 304.727 117.44 304.66C117.184 304.664 116.928 304.63 116.682 304.56Z" fill="url(#paint1_linear)"/>
<path d="M201.231 167.336C199.738 166.905 197.606 166.201 195.042 165.306C197.706 161.884 199.655 157.963 200.775 153.775L200.559 153.858C200.634 153.601 200.708 153.353 200.775 153.087C195.855 155.084 190.412 151.704 186.945 147.363C183.477 143.022 181.137 137.638 177.337 133.645C175.754 132.057 174.051 130.592 172.243 129.263C171.123 128.434 169.92 127.498 168.551 127.457C166.336 127.391 164.602 129.561 162.47 130.199C161.067 130.514 159.606 130.46 158.23 130.041C152.73 128.782 147.445 126.455 141.828 125.842C138.823 125.471 135.773 125.814 132.926 126.844C130.105 127.913 128.819 130.041 126.538 131.748C124.049 133.579 119.187 133.537 116.292 133.86C112.778 134.261 109.24 134.408 105.705 134.299C103.674 134.124 101.629 134.199 99.6158 134.523C95.4095 135.443 92.0328 138.781 88.8801 141.979C88.0196 142.702 87.4003 143.67 87.1047 144.754C87.0642 145.059 87.0642 145.368 87.1047 145.673C87.0729 146.508 87.2171 147.341 87.5278 148.117C88.4983 150.993 89.8696 153.717 91.6014 156.211C92.8873 158.05 94.389 159.781 95.1191 161.96C95.4652 163.031 95.647 164.148 95.6584 165.273C95.6226 166.468 95.4978 167.659 95.285 168.835C94.7283 172.088 93.8129 175.269 92.5555 178.32C91.7748 179.887 91.2377 181.563 90.9626 183.291C90.9388 183.644 90.9388 183.998 90.9626 184.351C90.7551 189.819 96.2806 193.753 97.3508 199.188C97.4388 199.639 97.4915 200.095 97.5085 200.555C97.3923 203.943 95.4592 207.256 92.6053 208.573C92.8541 208.673 93.1113 208.756 93.3685 208.838C93.123 208.992 92.8681 209.131 92.6053 209.253C93.1279 209.451 93.6589 209.625 94.1982 209.766C90.9546 212.587 88.2285 215.951 86.1423 219.707C76.5433 237.551 11.532 272.501 11.532 272.501L12.4944 273.047L11.7145 273.553C6.08953 277.289 -7.11018 288.182 4.82017 301.958C4.82017 301.958 14.1371 287.279 20.6664 281.025C20.9568 280.743 21.2472 280.486 21.4961 280.246C21.6395 280.467 21.7357 280.715 21.7785 280.974C21.8214 281.233 21.81 281.499 21.745 281.754L64.4885 257.772C64.4885 257.772 79.6793 247.152 83.9188 244.758C86.9028 242.901 90.15 241.505 93.551 240.616L93.0533 240.823C94.6514 240.384 96.2991 240.15 97.9565 240.127C105.523 240.243 113.72 245.777 116.416 267.688C120.033 297.029 118.358 302.323 117.196 303.044C117.053 303.033 116.911 303.008 116.773 302.969C116.809 303 116.848 303.028 116.889 303.052C116.732 303.041 116.576 303.013 116.424 302.969C116.508 303.046 116.61 303.1 116.72 303.126C116.831 303.152 116.946 303.149 117.055 303.118C117.134 303.142 117.216 303.149 117.298 303.139C117.379 303.129 117.457 303.102 117.528 303.06C117.719 303.071 117.91 303.071 118.1 303.06C118.1 303.331 118.081 303.607 118.042 303.889C117.984 303.889 117.702 304.046 118.042 304.063C117.951 305.719 117.959 307.517 118.042 309.397C114.284 309.604 110.526 309.828 107.257 310.027L107.547 308.478L107.68 307.782C110.567 307.55 113.305 306.705 113.629 304.369C114.334 299.233 107.273 296.491 101.267 296.151C95.2601 295.812 59.2368 298.206 59.2368 298.206C59.2368 298.206 53.8358 305.189 70.968 307.318C71.4769 307.583 72.0051 307.859 72.5527 308.147C79.2645 311.965 88.3657 318.998 92.7297 322.461L93.3354 322.942L91.3774 324.532C101.972 326.926 112.218 367.352 117.868 385.833C123.518 404.315 135.88 403.644 146.126 400.902C155.725 398.334 156.911 370.5 157.069 367.004V366.648L174.143 387.706L175.437 389.304C175.935 389.564 176.427 389.807 176.914 390.033C189.84 396.172 204.118 384.4 200.061 370.98C195.955 357.453 189.583 337.447 185.335 328.989C181.776 321.906 177.18 310.143 174.392 302.779C174.754 302.633 175.106 302.465 175.446 302.273C175.446 302.273 175.379 301.942 175.271 301.337L175.446 301.246C175.446 301.246 171.297 279.94 171.115 264.797C171.115 264.531 171.115 264.255 171.115 263.968C171.115 263.803 171.115 263.637 171.115 263.479C174.201 262.775 176.159 262.502 176.159 262.502L176.217 261.839L175.86 261.914L177.578 242.289C177.578 242.289 183.883 228.894 179.055 223.319C177.587 221.688 176.606 219.679 176.226 217.52C175.396 212.392 176.226 203.835 187.467 196.727C204.774 185.768 211.527 176.846 211.527 176.846C211.527 176.846 211.826 170.451 201.231 167.336ZM166.859 180.955V171.884C170.07 171.726 173.347 172.099 176.574 171.884C178.158 171.773 179.728 171.51 181.261 171.097L182.041 171.635C177.32 175.262 172.231 178.385 166.859 180.955ZM117.785 323.14C119.054 324.019 120.332 324.93 121.585 325.849C122.365 330.323 123.053 333.479 123.103 333.703C121.671 330.021 119.891 326.484 117.785 323.14Z" fill="url(#paint2_linear)"/>
<path d="M145.213 315.685L144.467 319.736L143.894 322.834L142.849 328.5L132.711 335.583C132.711 335.583 131.798 334.804 130.288 333.57C126.14 330.157 117.404 323.231 110.99 319.487C109.342 318.436 107.559 317.614 105.689 317.043L145.213 315.685Z" fill="#FFBDC6"/>
<path opacity="0.1" d="M145.213 315.685L144.467 319.736C142.232 319.86 139.99 319.746 137.78 319.396L114.126 319.736C113.006 319.669 111.961 319.578 110.982 319.479C109.334 318.428 107.551 317.606 105.681 317.035L145.213 315.685Z" fill="black"/>
<path d="M137.78 318.733C137.78 318.733 149.61 320.755 150.283 315.693C150.955 310.632 144.201 307.964 138.468 307.583C132.735 307.202 98.247 309.621 98.247 309.621C98.247 309.621 92.1656 317.714 114.126 319.065L137.78 318.733Z" fill="#7679B4"/>
<path opacity="0.1" d="M145.213 315.685L144.467 319.736L143.894 322.834L142.849 328.5L132.711 335.583C132.711 335.583 131.798 334.804 130.288 333.57C126.14 330.157 117.404 323.231 110.99 319.487C109.342 318.436 107.559 317.614 105.689 317.043L145.213 315.685Z" fill="black"/>
<path opacity="0.1" d="M145.213 315.685L144.467 319.736C142.232 319.86 139.99 319.746 137.78 319.396L114.126 319.736C113.006 319.669 111.961 319.578 110.982 319.479C109.334 318.428 107.551 317.606 105.681 317.035L145.213 315.685Z" fill="black"/>
<path opacity="0.1" d="M137.78 318.733C137.78 318.733 149.61 320.755 150.283 315.693C150.955 310.632 144.201 307.964 138.468 307.583C132.735 307.202 98.247 309.621 98.247 309.621C98.247 309.621 92.1656 317.714 114.126 319.065L137.78 318.733Z" fill="black"/>
<path d="M163.623 152.383H101.79V225.597H163.623V152.383Z" fill="#2F2E41"/>
<path opacity="0.1" d="M163.623 152.383H101.79V225.597H163.623V152.383Z" fill="black"/>
<path d="M29.3116 277.728C28.2911 277.985 26.9968 278.962 25.545 280.387C19.2977 286.55 10.3873 301.006 10.3873 301.006C-1.02868 287.437 11.6069 276.709 17.0245 273.023C18.3353 272.128 19.2147 271.647 19.2147 271.647L29.3116 277.728Z" fill="#FFBDC6"/>
<path d="M144.541 175.496C144.541 175.496 147.586 196.752 158.056 201.814C168.526 206.875 144.541 216.319 144.541 216.319L111.762 204.175C111.762 204.175 130.346 198.103 126.629 180.217L144.541 175.496Z" fill="#FFBDC6"/>
<path d="M109.431 303.367L108.684 307.418L108.112 310.516L107.066 316.182L96.9279 323.265C96.9279 323.265 96.0153 322.486 94.5053 321.252C90.3571 317.839 81.6209 310.913 75.2077 307.169C73.5596 306.118 71.7762 305.296 69.9062 304.725L109.431 303.367Z" fill="#FFBDC6"/>
<path opacity="0.1" d="M109.431 303.367L108.684 307.418C106.449 307.542 104.208 307.428 101.997 307.078L78.3438 307.418C77.2237 307.351 76.1784 307.26 75.1994 307.161C73.5513 306.11 71.7679 305.288 69.8979 304.717L109.431 303.367Z" fill="black"/>
<path d="M101.964 306.407C101.964 306.407 113.795 308.428 114.467 303.367C115.139 298.305 108.385 295.605 102.636 295.273C96.8863 294.942 62.4227 297.294 62.4227 297.294C62.4227 297.294 56.3414 305.388 78.3022 306.738L101.964 306.407Z" fill="#7679B4"/>
<path opacity="0.1" d="M108.078 310.524L107.033 316.19L96.8947 323.273C96.8947 323.273 95.9821 322.494 94.4722 321.26L107.879 310.284L108.078 310.524Z" fill="black"/>
<path d="M174.973 387.763C174.508 387.537 174.038 387.297 173.562 387.043L172.326 385.469L155.999 364.759V365.123C155.891 368.561 154.713 395.981 145.537 398.508C135.739 401.208 123.908 401.879 118.507 383.663C113.106 365.447 103.299 325.634 93.1611 323.273L108.194 310.955C108.194 310.955 118.15 322.552 122.215 333.719C122.066 333.007 115.188 300.939 120.863 295.273H170.194C170.194 295.273 177.794 316.927 183.037 327.663C187.102 335.997 193.2 355.696 197.141 369.025C201.04 382.213 187.417 393.811 174.973 387.763Z" fill="#7679B4"/>
<path opacity="0.1" d="M173.596 301.337C165.988 305.835 132.536 304.004 121.635 303.275L118.673 303.06C118.349 303.06 118.723 302.878 118.723 302.878L119.03 299.813L127.135 279.235L170.559 254.118C169.68 256.761 169.381 260.812 169.456 265.459C169.671 280.354 173.596 301.337 173.596 301.337Z" fill="black"/>
<path d="M173.596 300.335C165.988 304.833 132.536 303.002 121.635 302.273L118.673 302.058H118.183L118.723 301.917L121.394 301.213L127.135 278.266L170.559 253.133C169.68 255.775 169.381 259.826 169.456 264.474C169.671 279.343 173.596 300.335 173.596 300.335Z" fill="#F2F1F2"/>
<path opacity="0.1" d="M169.456 264.44C160.628 266.47 141.198 272.443 133.731 286.807C128.753 296.4 124.605 300.517 121.643 302.24L118.681 302.025L118.731 301.842L121.402 301.138L127.144 278.192L170.567 253.058C169.671 255.775 169.381 259.793 169.456 264.44Z" fill="black"/>
<path opacity="0.1" d="M19.1732 271.656L29.3115 277.728C28.291 277.985 26.9968 278.962 25.5449 280.387C24.7152 277.902 19.3889 274.489 16.9829 273.031C18.2938 272.136 19.1732 271.656 19.1732 271.656Z" fill="black"/>
<path opacity="0.1" d="M116.901 302.448C116.787 302.511 116.656 302.536 116.527 302.52C116.398 302.503 116.278 302.446 116.184 302.356C116.417 302.422 116.659 302.453 116.901 302.448Z" fill="black"/>
<path d="M139.804 200.463C139.804 200.463 130.678 201.474 124.256 194.731C124.256 194.731 97.2264 202.493 88.1003 220.038C78.9741 237.584 16.8003 271.995 16.8003 271.995C16.8003 271.995 27.5857 278.067 26.5984 281.108L67.4835 257.49C67.4835 257.49 82.0106 247.027 86.0676 244.666C90.1246 242.306 112.426 227.8 117.155 267.273C121.884 306.746 117.155 302.066 117.155 302.066C117.155 302.066 123.916 304.427 133.748 285.498C143.579 266.569 173.961 262.22 173.961 262.22L175.62 242.339C175.62 242.339 181.651 229.151 177.03 223.65C175.621 222.032 174.685 220.057 174.326 217.942C173.554 212.889 174.326 204.464 185.111 197.465C201.704 186.695 208.092 177.898 208.092 177.898C208.092 177.898 208.432 171.486 198.294 168.454C188.156 165.422 146.931 148.887 146.931 148.887L145.578 154.62L178.018 177.566C178.018 177.566 161.798 190.721 148.98 190.39C148.93 190.332 151.295 200.124 139.804 200.463Z" fill="#315EFB"/>
<path opacity="0.1" d="M146.068 184.749C145.269 182.03 144.645 179.263 144.201 176.465L126.289 181.22C127.073 184.633 126.933 188.193 125.883 191.533C129.543 192.508 133.411 192.384 137.001 191.176C140.591 189.968 143.745 187.729 146.068 184.741V184.749Z" fill="black"/>
<path d="M131.192 191.185C141.832 191.185 150.457 182.573 150.457 171.95C150.457 161.327 141.832 152.715 131.192 152.715C120.553 152.715 111.928 161.327 111.928 171.95C111.928 182.573 120.553 191.185 131.192 191.185Z" fill="#FFBDC6"/>
<path opacity="0.1" d="M141.43 128.203C146.773 128.807 151.859 131.102 157.119 132.345C158.433 132.756 159.833 132.81 161.176 132.502C163.217 131.872 164.876 129.735 166.983 129.801C168.286 129.801 169.472 130.729 170.518 131.582C172.249 132.894 173.877 134.337 175.388 135.898C179.013 139.833 181.27 145.135 184.58 149.409C187.89 153.684 193.109 157.014 197.813 155.051C194.619 167.477 184.132 176.978 172.799 177.749C168.277 178.055 163.673 177.119 159.268 178.445C158.176 178.889 157.024 179.168 155.849 179.273C153.36 179.273 151.303 176.962 149.727 174.717C146.043 169.432 143.089 163.434 138.941 158.621C137.572 157.031 135.954 155.515 134.021 155.225C132.088 154.935 130.304 155.854 128.579 156.749C125.733 158.224 122.821 159.748 120.614 162.266C118.407 164.784 117.014 168.554 117.926 171.967C118.416 173.806 119.544 175.462 119.585 177.393C119.585 180.458 116.914 182.703 116.375 185.677C116.256 186.932 116.212 188.193 116.242 189.454C116.001 193.546 113.33 196.91 110.526 199.469C109.439 200.472 108.228 201.54 107.912 203.089C107.697 204.141 107.912 205.26 107.771 206.328C107.365 208.988 104.71 210.33 102.362 210.678C99.6197 211.079 96.82 210.747 94.248 209.717C97.5666 208.167 99.5494 203.752 98.7861 199.776C97.7408 194.3 92.2319 190.374 92.6965 184.79C92.9563 183.08 93.4709 181.419 94.2231 179.861C95.4253 176.849 96.2987 173.716 96.8282 170.517C97.371 168.055 97.3169 165.499 96.6705 163.061C95.9653 160.916 94.53 159.209 93.3022 157.395C91.6393 154.929 90.327 152.244 89.4028 149.418C89.0679 148.582 88.9399 147.679 89.0295 146.783C89.297 145.727 89.8749 144.775 90.6888 144.05C93.7087 140.894 96.9443 137.605 100.96 136.694C102.878 136.374 104.83 136.299 106.767 136.47C110.15 136.577 113.536 136.433 116.897 136.039C119.668 135.716 124.364 135.758 126.704 133.952C128.886 132.295 130.122 130.182 132.818 129.122C135.57 128.116 138.527 127.8 141.43 128.203Z" fill="black"/>
<path opacity="0.1" d="M152.141 326.818C152.141 326.818 163.291 348.746 159.915 355.497L152.141 326.818Z" fill="black"/>
<path opacity="0.1" d="M172.359 385.469L156.032 364.759V365.123C156.032 365.123 155.086 358.43 158.197 360.683C165.009 365.604 175.91 373.673 176.143 375.064C176.375 376.456 173.936 382.039 172.359 385.469Z" fill="black"/>
<g opacity="0.1">
<path opacity="0.1" d="M149.254 190.332C149.254 190.332 150.631 196.032 146.176 198.881C153.037 197.705 153.336 192.378 153.128 190.059C151.848 190.266 150.551 190.357 149.254 190.332Z" fill="black"/>
<path opacity="0.1" d="M20.8658 270.645C20.8658 270.645 83.0396 236.233 92.1657 218.688C98.7117 206.096 114.483 198.55 122.863 195.286C116.748 197.332 96.1729 205.177 88.4406 220.038C79.3145 237.584 17.1406 271.995 17.1406 271.995L20.8658 270.645Z" fill="black"/>
<path opacity="0.1" d="M161.35 187.656C171.928 184.343 182.042 176.167 182.042 176.167L149.602 153.22L150.341 150.072L147.238 148.83L145.885 154.562L178.325 177.509C173.119 181.594 167.415 185.004 161.35 187.656Z" fill="black"/>
<path opacity="0.1" d="M161.558 265.41C165.703 263.997 169.956 262.925 174.276 262.204L174.334 261.549C169.982 262.504 165.71 263.795 161.558 265.41Z" fill="black"/>
<path opacity="0.1" d="M122.24 300.757H121.942C121.829 300.82 121.698 300.845 121.57 300.829C121.442 300.813 121.322 300.756 121.228 300.666C121.46 300.731 121.701 300.762 121.942 300.757C123.053 300.111 124.721 295.075 121.228 265.915C117.495 234.784 102.843 237.228 94.8206 240.806C103.017 238.553 114.301 240.5 117.511 267.265C121.004 296.425 119.337 301.47 118.225 302.108C119.666 302.054 121.061 301.585 122.24 300.757Z" fill="black"/>
<path opacity="0.1" d="M118.228 302.116C117.986 302.121 117.745 302.09 117.511 302.025C117.605 302.115 117.726 302.172 117.855 302.189C117.984 302.205 118.115 302.18 118.228 302.116Z" fill="black"/>
</g>
<path d="M141.43 127.548C146.773 128.153 151.859 130.447 157.119 131.69C158.433 132.102 159.833 132.156 161.176 131.847C163.217 131.218 164.876 129.081 166.983 129.147C168.286 129.147 169.472 130.075 170.518 130.928C172.249 132.24 173.877 133.683 175.388 135.244C179.013 139.179 181.27 144.48 184.58 148.755C187.89 153.029 193.109 156.36 197.813 154.396C194.619 166.822 184.132 176.324 172.799 177.094C168.277 177.401 163.673 176.465 159.268 177.79C158.176 178.235 157.024 178.514 155.849 178.619C153.36 178.619 151.303 176.307 149.727 174.062C146.043 168.777 143.089 162.78 138.941 157.967C137.572 156.376 135.954 154.86 134.021 154.57C132.088 154.28 130.304 155.2 128.579 156.095C125.733 157.569 122.821 159.093 120.614 161.612C118.407 164.13 117.014 167.899 117.926 171.312C118.416 173.151 119.544 174.808 119.585 176.738C119.585 179.803 116.914 182.048 116.375 185.022C116.256 186.277 116.212 187.539 116.242 188.8C116.001 192.892 113.33 196.255 110.526 198.815C109.439 199.817 108.228 200.886 107.912 202.435C107.697 203.487 107.912 204.605 107.771 205.674C107.365 208.333 104.71 209.675 102.362 210.023C99.6197 210.424 96.82 210.093 94.248 209.062C97.5666 207.513 99.5494 203.098 98.7861 199.121C97.7408 193.646 92.2319 189.719 92.6965 184.136C92.9563 182.426 93.4709 180.764 94.2231 179.207C95.4253 176.195 96.2987 173.062 96.8282 169.862C97.371 167.4 97.3169 164.844 96.6705 162.407C95.9653 160.261 94.53 158.555 93.3022 156.741C91.6393 154.274 90.327 151.59 89.4028 148.763C89.0679 147.928 88.9399 147.024 89.0295 146.129C89.297 145.073 89.8749 144.121 90.6888 143.395C93.7087 140.239 96.9443 136.95 100.96 136.039C102.878 135.72 104.83 135.645 106.767 135.815C110.15 135.923 113.536 135.779 116.897 135.385C119.668 135.062 124.364 135.103 126.704 133.297C128.886 131.64 130.122 129.528 132.818 128.468C135.57 127.462 138.527 127.146 141.43 127.548Z" fill="#2F2E41"/>
<path d="M691.512 84.372C691.512 84.2643 691.512 84.1649 691.512 84.0655C691.512 83.9661 691.512 83.8501 691.462 83.7507H691.329C691.329 83.527 691.329 83.3034 691.329 83.0631C690.997 75.3839 680.361 59.0397 676.097 63.8112C672.363 68.0029 677.997 78.6064 680.867 83.3779L681.125 83.8087L680.983 83.7176C680.983 83.7176 669.111 119.073 667.709 120.449C666.307 121.824 656.534 149.625 643.649 152.756C641.102 153.361 638.987 153.907 637.211 154.413L637.352 153.941C638.182 151.232 639.202 148.672 639.617 145.657C640.032 142.641 639.617 138.988 638.091 137.522C637.344 136.793 636.431 136.693 635.817 135.534C635.419 134.517 635.205 133.436 635.187 132.344L634.092 118.941L634.855 118.709C639.468 117.234 643.94 113.739 644.462 109.033C644.302 109.094 644.139 109.147 643.973 109.191C644.034 108.917 644.081 108.641 644.114 108.362C640.239 109.887 636.647 105.877 632.914 104.08C626.766 101.072 619.739 103.906 613.392 104.593C606.199 105.38 599.371 102.398 592.02 102.936C588.021 103.243 583.575 105.952 583.79 109.887C583.915 112.049 585.45 113.879 586.08 115.95C587.673 120.962 584.13 125.991 581.027 130.265C578.987 133.073 577.029 136.495 576.68 139.792C569.537 132.336 561.813 123.721 560.917 120.482L540.25 85.1258C540.25 85.1258 539.761 85.6477 538.973 86.4181C538.848 86.0371 538.699 85.5897 538.533 85.1424C535.895 77.7614 528.428 59.8764 518.961 63.1568C509.495 66.4372 522.886 84.7696 528.71 92.0761L529.539 93.0867C529.051 93.2065 528.538 93.1835 528.063 93.0204L551.11 132.493C551.11 132.493 555.3 140.048 559.141 142.103C559.141 142.103 587.773 178.146 588.121 185.353C588.469 192.56 600.997 211.787 600.997 211.787C600.997 211.787 605.187 243.026 597.853 248.518H597.944H598.002H598.093H598.176H598.342H598.45H598.558H598.699H598.815H598.981H599.064C598.716 248.858 598.359 249.231 597.994 249.637C592.56 255.651 585.615 268.541 595.107 290.46C609.07 322.768 611.169 335.425 611.169 335.425C611.169 335.425 584.62 336.801 579.393 337.828C574.764 338.739 556.769 339.377 552.653 339.485C551.185 337.778 546.846 334.001 540.989 339.485C533.655 346.352 528.419 369.307 528.419 369.307C528.419 369.307 525.624 387.846 535.057 383.033C535.057 383.033 546.232 367.584 549.368 366.896C550.928 366.557 552.579 364.262 553.84 362.05L553.906 362.091C553.981 362.091 554.288 361.926 554.786 361.727C557.109 360.807 563.505 358.596 568.55 359.697C571.312 360.302 583.16 360.443 595.579 360.41C592.775 367.12 587.748 384.433 587.748 384.433C587.748 384.433 585.649 400.579 592.618 399.916C597.596 399.427 605.228 386.728 609.211 379.479C612.098 377.367 620.369 369.796 626.484 370.367L667.684 354.578C667.684 354.578 677.457 349.086 672.222 330.894C668.074 316.43 656.268 286.823 651.606 275.284L651.465 274.986C650.336 272.194 649.656 270.537 649.656 270.537C647.74 265.269 646.484 259.785 645.914 254.21C645.873 253.77 645.84 253.323 645.806 252.884C646.383 252.642 646.927 252.328 647.424 251.948C647.424 251.948 643.583 213.163 647.424 209.037L647.491 208.963V208.913L647.557 208.83L647.706 208.64L647.889 208.408C648.096 208.134 648.345 207.795 648.627 207.38C650.826 204.166 654.924 196.827 653.746 188.162C653.696 187.786 653.636 187.408 653.564 187.027C653.112 184.677 652.307 182.409 651.174 180.3C651.008 179.422 650.906 178.534 650.867 177.641C650.867 177.136 650.867 176.581 650.867 175.984V175.885C650.867 175.725 650.867 175.565 650.867 175.404V175.288C650.867 174.899 650.934 174.46 650.992 174.095V173.946C650.992 173.797 651.017 173.645 651.066 173.491V173.3C651.066 173.151 651.133 173.002 651.166 172.853V172.695C651.216 172.497 651.265 172.298 651.332 172.099V172C651.382 171.834 651.437 171.671 651.498 171.511L651.572 171.32L651.738 170.923L651.821 170.724C651.888 170.575 651.962 170.426 652.037 170.277L652.095 170.152C652.195 169.97 652.3 169.791 652.41 169.614L652.502 169.473L652.775 169.084L652.908 168.91L653.199 168.562L653.331 168.413C653.481 168.255 653.63 168.098 653.796 167.949C658.334 163.807 678.586 133.28 678.586 133.28C678.586 133.28 683.472 126.413 683.472 121.956C683.746 121.857 692.383 93.1116 691.512 84.372ZM637.145 340.967C636.647 336.262 636.149 330.43 635.693 324.399L643.591 336.693C643.591 336.693 642.845 340.437 637.145 340.967Z" fill="url(#paint3_linear)"/>
<path d="M554.794 338.366C554.794 338.366 550.065 330.911 542.963 337.695C535.862 344.48 530.801 367.045 530.801 367.045C530.801 367.045 528.096 385.27 537.222 380.54C537.222 380.54 548.008 365.356 551.077 364.685C554.147 364.014 557.499 355.572 557.499 355.572L554.794 338.366Z" fill="#493545"/>
<path d="M605.477 356.583C605.477 356.583 599.056 353.542 597.032 355.912C595.007 358.281 588.246 381.89 588.246 381.89C588.246 381.89 586.221 397.414 592.975 396.735C599.728 396.056 611.559 371.751 611.559 371.751L605.477 356.583Z" fill="#493545"/>
<path opacity="0.05" d="M605.477 356.583C605.477 356.583 599.056 353.542 597.032 355.912C595.007 358.281 588.246 381.89 588.246 381.89C588.246 381.89 586.221 397.414 592.975 396.735C599.728 396.056 611.559 371.751 611.559 371.751L605.477 356.583Z" fill="black"/>
<path d="M627.778 310.698L642.305 333.305C642.305 333.305 641.293 338.366 632.507 337.356L602.432 356.251C602.432 356.251 599.819 379.256 608.174 377.168C609.526 376.829 618.959 367.045 625.746 367.725L665.627 352.201C665.627 352.201 675.085 346.799 670.016 328.923C664.947 311.046 648.188 269.593 648.188 269.593L621.697 284.388L627.778 310.698Z" fill="#315EFB"/>
<path opacity="0.05" d="M627.778 310.698L642.305 333.305C642.305 333.305 641.293 338.366 632.507 337.356L602.432 356.251C602.432 356.251 599.819 379.256 608.174 377.168C609.526 376.829 618.959 367.045 625.746 367.725L665.627 352.201C665.627 352.201 675.085 346.799 670.016 328.923C664.947 311.046 648.188 269.593 648.188 269.593L621.697 284.388L627.778 310.698Z" fill="black"/>
<path d="M636.904 344.099C638.929 356.922 627.446 357.933 627.446 357.933C627.446 357.933 575.743 358.944 569.661 357.593C563.58 356.243 555.466 359.954 555.466 359.954C544.988 353.543 553.442 337.687 553.442 337.687C553.442 337.687 575.071 337.016 580.14 336.03C585.209 335.044 610.887 333.644 610.887 333.644C610.887 333.644 608.862 321.161 595.339 289.45C586.155 267.911 592.85 255.237 598.135 249.33C599.483 247.763 601.044 246.391 602.773 245.255L644.338 247.276C644.293 249.369 644.371 251.463 644.57 253.547C645.281 260.702 647.144 267.695 650.087 274.257C647.723 274.257 632.516 288.431 632.516 288.431C632.516 288.431 634.872 331.284 636.904 344.099Z" fill="#315EFB"/>
<path opacity="0.1" d="M556.478 339.037C556.478 339.037 578.107 338.366 583.177 337.38C588.246 336.395 613.923 335.02 613.923 335.02C613.923 335.02 611.899 322.536 598.376 290.825C589.192 269.286 595.887 256.612 601.172 250.706C602.52 249.138 604.081 247.766 605.809 246.63L644.322 248.502C644.322 248.104 644.322 247.674 644.322 247.301L602.756 245.28C601.028 246.416 599.467 247.788 598.119 249.355C592.859 255.27 586.138 267.936 595.323 289.474C608.879 321.161 610.887 333.644 610.887 333.644C610.887 333.644 585.168 334.995 580.14 336.005C575.112 337.016 553.442 337.662 553.442 337.662C553.442 337.662 544.996 353.526 555.466 359.963C555.466 359.963 555.782 359.813 556.296 359.598C549.335 352.449 556.478 339.037 556.478 339.037Z" fill="black"/>
<path d="M618.312 121.418H597.363V174.386H618.312V121.418Z" fill="#493545"/>
<path opacity="0.1" d="M618.312 121.418H597.363V174.386H618.312V121.418Z" fill="black"/>
<path d="M630.292 113.648C631.014 113.846 631.827 113.871 632.317 114.865C632.62 115.66 632.786 116.5 632.806 117.351L634.125 133.72C634.144 134.791 634.352 135.851 634.739 136.851C635.295 137.961 636.216 138.094 636.938 138.806C638.39 140.247 638.813 143.859 638.414 146.8C638.016 149.741 637.012 152.259 636.224 154.918C635.096 158.729 634.349 163.012 632.765 166.226C631.18 169.44 628.301 171.196 626.443 168.496C624.584 165.795 624.833 160.344 624.485 155.879C623.904 148.424 620.992 141.995 620.793 134.49C620.627 128.418 622.261 122.752 623.282 116.994C624.012 113.043 624.053 108.246 625.115 104.693C626.003 108.917 627.695 112.935 630.292 113.648Z" fill="#493545"/>
<path opacity="0.1" d="M630.292 113.648C631.014 113.846 631.827 113.871 632.317 114.865C632.62 115.66 632.786 116.5 632.806 117.351L634.125 133.72C634.144 134.791 634.352 135.851 634.739 136.851C635.295 137.961 636.216 138.094 636.938 138.806C638.39 140.247 638.813 143.859 638.414 146.8C638.016 149.741 637.012 152.259 636.224 154.918C635.096 158.729 634.349 163.012 632.765 166.226C631.18 169.44 628.301 171.196 626.443 168.496C624.584 165.795 624.833 160.344 624.485 155.879C623.904 148.424 620.992 141.995 620.793 134.49C620.627 128.418 622.261 122.752 623.282 116.994C624.012 113.043 624.053 108.246 625.115 104.693C626.003 108.917 627.695 112.935 630.292 113.648Z" fill="black"/>
<path d="M541.611 90.3778L533.505 97.1292C533.505 97.1292 532.543 96.0026 531.108 94.1801C525.474 86.998 512.524 68.9804 521.675 65.7579C530.826 62.5354 538.06 80.1057 540.615 87.3625C541.263 89.2015 541.611 90.3778 541.611 90.3778Z" fill="#FFB7B7"/>
<path d="M687.928 88.017C684.551 93.0784 679.822 88.017 679.822 88.017C679.822 88.017 679.216 87.114 678.362 85.656C675.583 80.959 670.132 70.5461 673.741 66.4207C677.889 61.7071 688.168 77.7945 688.484 85.3412C688.581 86.2691 688.387 87.2044 687.928 88.017Z" fill="#FFB7B7"/>
<path d="M604.797 142.674C604.797 142.674 611.559 164.271 609.526 170.674C607.493 177.078 624.061 184.533 624.061 184.533H642.986C642.986 184.533 649.747 170.699 648.055 166.648C646.362 162.597 631.835 159.565 631.835 159.565C631.835 159.565 623.39 159.565 623.73 136.958L604.797 142.674Z" fill="#FFB7B7"/>
<path opacity="0.1" d="M541.611 90.3779L533.506 97.1293C533.506 97.1293 532.543 96.0027 531.108 94.1802C534.053 93.6583 538.624 89.3673 540.624 87.3625C541.263 89.2016 541.611 90.3779 541.611 90.3779Z" fill="black"/>
<path opacity="0.1" d="M687.928 88.017C684.551 93.0785 679.822 88.017 679.822 88.017C679.822 88.017 679.216 87.114 678.362 85.6561L678.47 85.3164C680.66 86.8821 687.471 85.5484 688.484 85.3164C688.587 86.2525 688.392 87.1973 687.928 88.017Z" fill="black"/>
<path opacity="0.1" d="M644.554 253.539C634.1 258.302 600.134 249.819 598.094 249.314C599.442 247.746 601.003 246.375 602.731 245.238L644.297 247.259C644.26 249.356 644.346 251.452 644.554 253.539Z" fill="black"/>
<path d="M609.194 161.23C609.194 161.23 601.089 163.931 589.598 153.468C589.598 153.468 563.879 128.161 562.22 122.089L542.308 87.2962C542.308 87.2962 533.862 96.4086 530.477 95.0583L552.778 133.86C552.778 133.86 556.835 141.316 560.552 143.304C560.552 143.304 588.262 178.734 588.594 185.817C588.926 192.9 601.08 211.87 601.08 211.87C601.08 211.87 605.137 242.571 598.036 247.972C598.036 247.972 637.568 258.095 646.014 251.343C646.014 251.343 642.297 213.237 646.014 209.17C646.014 209.17 657.505 195.675 649.731 180.83C649.731 180.83 648.072 172.737 652.436 168.686C656.8 164.635 676.429 134.606 676.429 134.606C676.429 134.606 681.158 127.854 681.158 123.472C681.158 123.472 689.944 93.7826 688.625 86.0205C688.625 86.0205 680.851 87.6773 678.487 86.0205C678.487 86.0205 666.996 120.813 665.644 122.122C664.291 123.431 654.858 150.801 642.33 153.841C629.803 156.881 627.803 158.223 627.803 158.223C627.803 158.223 652.129 173.408 640.306 180.151C628.484 186.894 609.194 161.23 609.194 161.23Z" fill="#2F2E41"/>
<path opacity="0.1" d="M624.551 147.868C624.15 144.69 623.986 141.486 624.061 138.284L605.137 144.016C605.635 145.275 606.032 146.572 606.324 147.893C608.489 148.846 611.409 151.099 613.923 151.099C617.726 151.223 621.463 150.087 624.551 147.868Z" fill="black"/>
<path d="M613.583 150.097C623.288 150.097 631.155 142.242 631.155 132.552C631.155 122.861 623.288 115.006 613.583 115.006C603.878 115.006 596.011 122.861 596.011 132.552C596.011 142.242 603.878 150.097 613.583 150.097Z" fill="#FFB7B7"/>
<path opacity="0.1" d="M592.676 105.521C588.81 105.819 584.496 108.487 584.711 112.355C584.827 114.484 586.288 116.282 586.926 118.32C588.461 123.249 585.043 128.194 582.04 132.403C579.037 136.611 576.232 142.186 578.804 146.643C579.537 147.716 580.329 148.747 581.177 149.733C584.355 154.015 584.313 159.798 585.724 164.942C587.525 171.523 591.782 177.166 597.621 180.709C603.46 184.253 610.437 185.429 617.117 183.995C614.603 180.79 613.348 176.777 613.591 172.712C613.782 169.763 614.736 166.682 613.591 163.956C612.115 160.452 607.784 159.069 605.552 156.003C603.32 152.938 603.47 148.689 604.548 145.036C605.627 141.382 607.493 137.994 608.389 134.266C608.611 133.179 608.888 132.103 609.219 131.044C610.779 126.62 615.442 124.052 620.005 122.951C624.568 121.849 629.363 121.782 633.818 120.333C638.273 118.883 642.604 115.487 643.119 110.823C639.369 112.322 635.892 108.412 632.275 106.615C626.318 103.665 619.523 106.441 613.384 107.12C606.39 107.899 599.753 105.007 592.676 105.521Z" fill="black"/>
<path d="M592.336 104.85C588.47 105.148 584.156 107.816 584.371 111.684C584.487 113.813 585.948 115.611 586.586 117.649C588.121 122.578 584.703 127.523 581.7 131.731C578.696 135.94 575.892 141.515 578.464 145.972C579.197 147.044 579.989 148.076 580.837 149.061C584.014 153.344 583.973 159.126 585.383 164.271C587.185 170.852 591.442 176.494 597.281 180.038C603.12 183.582 610.097 184.758 616.777 183.324C614.262 180.119 613.008 176.106 613.251 172.041C613.442 169.092 614.396 166.01 613.251 163.285C611.775 159.781 607.444 158.397 605.212 155.332C602.98 152.267 603.13 148.018 604.208 144.364C605.287 140.711 607.153 137.323 608.049 133.595C608.271 132.508 608.547 131.432 608.879 130.373C610.439 125.949 615.101 123.381 619.664 122.279C624.228 121.178 629.023 121.111 633.478 119.662C637.933 118.212 642.264 114.816 642.778 110.152C639.028 111.651 635.552 107.741 631.935 105.943C625.978 102.994 619.183 105.769 613.044 106.449C606.067 107.219 599.454 104.295 592.336 104.85Z" fill="#493545"/>
<path opacity="0.1" d="M630.989 171.528C630.989 171.528 638.025 177.799 639.41 180.565L630.989 171.528Z" fill="black"/>
<path opacity="0.1" d="M646.213 208.979C646.213 208.979 637.427 208.979 633.37 209.99C629.313 211.001 619.515 209.99 619.515 209.99" fill="black"/>
<g opacity="0.1">
<path opacity="0.1" d="M640.281 180.126C639.524 180.559 638.704 180.872 637.85 181.054C640.054 181.542 642.36 181.212 644.338 180.126C656.169 173.375 631.835 158.198 631.835 158.198H627.778C627.778 158.198 652.112 173.383 640.281 180.126Z" fill="black"/>
<path opacity="0.1" d="M688.683 86.6086C688.683 86.3932 688.633 86.1861 688.6 85.9956C687.21 86.2832 685.806 86.4961 684.394 86.6335C685.82 86.7901 687.259 86.7817 688.683 86.6086Z" fill="black"/>
<path opacity="0.1" d="M602.101 247.947C609.194 242.546 605.145 211.845 605.145 211.845C605.145 211.845 592.983 192.95 592.643 185.867C592.302 178.784 564.6 143.354 564.6 143.354C560.884 141.332 556.827 133.91 556.827 133.91C556.827 133.91 533.845 96.4582 530.469 95.1079L552.77 133.91C552.77 133.91 556.827 141.365 560.543 143.354C560.543 143.354 588.254 178.784 588.586 185.867C588.917 192.95 601.08 211.87 601.08 211.87C601.08 211.87 605.137 242.57 598.035 247.972C598.035 247.972 622.336 254.193 636.904 253.63C622.303 253.116 602.101 247.947 602.101 247.947Z" fill="black"/>
<path opacity="0.1" d="M609.393 161.496L609.194 161.239C608.963 161.307 608.727 161.36 608.489 161.396C608.804 161.438 609.103 161.471 609.393 161.496Z" fill="black"/>
</g>
<g opacity="0.1">
<path opacity="0.1" d="M688.6 85.9543L688.392 85.9958C688.036 96.359 680.834 120.706 680.834 120.706C680.834 125.088 676.105 131.839 676.105 131.839C676.105 131.839 656.509 161.868 652.112 165.919C647.715 169.97 649.407 178.064 649.407 178.064L649.449 178.146C649.316 175.421 649.648 171.196 652.444 168.612C656.833 164.561 676.437 134.531 676.437 134.531C676.437 134.531 681.166 127.78 681.166 123.398C681.166 123.448 689.952 93.7578 688.6 85.9543Z" fill="black"/>
<path opacity="0.1" d="M645.69 206.445C646.197 209.311 645.856 206.279 646.031 209.145C646.031 209.145 654.327 199.428 652.062 187.416C652.742 198.152 645.69 206.445 645.69 206.445Z" fill="black"/>
</g>
<path opacity="0.1" d="M389.761 548C585.72 548 744.576 532.764 744.576 513.969C744.576 495.175 585.72 479.939 389.761 479.939C193.801 479.939 34.9448 495.175 34.9448 513.969C34.9448 532.764 193.801 548 389.761 548Z" fill="#315EFB"/>
<path d="M252.221 479.442C252.221 479.442 240.142 438.478 254.486 408.333C260.587 395.725 262.427 381.482 259.73 367.741C258.397 361.228 256.47 354.85 253.972 348.688" stroke="#535461" stroke-width="2" stroke-miterlimit="10"/>
<path d="M262.916 329.652C262.916 334.672 253.789 349.227 253.789 349.227C253.789 349.227 244.663 334.672 244.663 329.652C244.571 328.402 244.737 327.146 245.153 325.963C245.568 324.781 246.223 323.696 247.078 322.778C247.932 321.86 248.966 321.127 250.117 320.626C251.268 320.125 252.509 319.867 253.765 319.867C255.02 319.867 256.261 320.125 257.412 320.626C258.563 321.127 259.597 321.86 260.452 322.778C261.306 323.696 261.961 324.781 262.376 325.963C262.792 327.146 262.958 328.402 262.866 329.652H262.916Z" fill="#315EFB"/>
<path d="M277.94 357.452C275.211 361.669 259.647 368.942 259.647 368.942C259.647 368.942 259.929 351.786 262.658 347.57C263.264 346.475 264.088 345.517 265.081 344.754C266.073 343.991 267.212 343.441 268.427 343.136C269.642 342.832 270.906 342.781 272.142 342.986C273.377 343.19 274.557 343.647 275.608 344.327C276.659 345.006 277.559 345.895 278.252 346.937C278.944 347.979 279.414 349.152 279.633 350.383C279.852 351.614 279.814 352.877 279.523 354.094C279.232 355.31 278.693 356.453 277.94 357.452Z" fill="#315EFB"/>
<path d="M277.285 404.978C272.797 407.239 255.714 405.674 255.714 405.674C255.714 405.674 264.633 391.003 269.121 388.741C270.197 388.096 271.395 387.68 272.639 387.518C273.884 387.356 275.148 387.452 276.354 387.8C277.56 388.148 278.68 388.741 279.646 389.541C280.612 390.341 281.402 391.331 281.967 392.45C282.533 393.569 282.861 394.792 282.931 396.043C283.001 397.294 282.812 398.547 282.376 399.722C281.939 400.897 281.265 401.969 280.395 402.872C279.525 403.775 278.477 404.489 277.318 404.969L277.285 404.978Z" fill="#315EFB"/>
<path d="M268.682 440.814C264.641 443.796 247.501 445.146 247.501 445.146C247.501 445.146 253.806 429.183 257.855 426.193C259.803 425.011 262.124 424.599 264.361 425.04C266.597 425.481 268.588 426.742 269.941 428.574C271.293 430.407 271.91 432.678 271.669 434.942C271.428 437.206 270.348 439.297 268.64 440.806L268.682 440.814Z" fill="#315EFB"/>
<path d="M240.515 369.92C244.124 373.416 260.924 377.044 260.924 377.044C260.924 377.044 256.776 360.385 253.2 356.881C252.366 355.947 251.348 355.195 250.21 354.671C249.071 354.147 247.837 353.863 246.584 353.837C245.331 353.81 244.086 354.042 242.926 354.517C241.767 354.992 240.718 355.7 239.844 356.598C238.971 357.495 238.292 358.563 237.85 359.734C237.408 360.905 237.213 362.155 237.276 363.405C237.339 364.655 237.659 365.878 238.216 366.999C238.773 368.12 239.556 369.114 240.515 369.92Z" fill="#315EFB"/>
<path d="M230.999 411.969C235.487 414.231 252.57 412.665 252.57 412.665C252.57 412.665 243.684 397.994 239.196 395.774C237.068 394.892 234.684 394.846 232.524 395.646C230.363 396.446 228.586 398.032 227.548 400.087C226.511 402.141 226.29 404.511 226.93 406.721C227.57 408.931 229.024 410.818 230.999 412.002V411.969Z" fill="#315EFB"/>
<path d="M227.348 454.101C231.389 457.084 248.529 458.434 248.529 458.434C248.529 458.434 242.224 442.471 238.175 439.48C237.226 438.642 236.113 438.01 234.906 437.626C233.699 437.241 232.426 437.111 231.166 437.244C229.906 437.378 228.688 437.772 227.589 438.401C226.49 439.03 225.534 439.881 224.782 440.9C224.031 441.918 223.5 443.081 223.223 444.316C222.947 445.55 222.93 446.829 223.176 448.07C223.421 449.311 223.922 450.487 224.648 451.524C225.373 452.561 226.307 453.436 227.39 454.093L227.348 454.101Z" fill="#315EFB"/>
<path opacity="0.1" d="M262.916 329.652C262.916 334.672 253.789 349.227 253.789 349.227C253.789 349.227 244.663 334.672 244.663 329.652C244.571 328.402 244.737 327.146 245.153 325.963C245.568 324.781 246.223 323.696 247.078 322.778C247.932 321.86 248.966 321.127 250.117 320.626C251.268 320.125 252.509 319.867 253.765 319.867C255.02 319.867 256.261 320.125 257.412 320.626C258.563 321.127 259.597 321.86 260.452 322.778C261.306 323.696 261.961 324.781 262.376 325.963C262.792 327.146 262.958 328.402 262.866 329.652H262.916Z" fill="#315EFB"/>
<path opacity="0.1" d="M277.94 357.452C275.211 361.669 259.647 368.942 259.647 368.942C259.647 368.942 259.929 351.786 262.658 347.57C263.264 346.475 264.088 345.517 265.081 344.754C266.073 343.991 267.212 343.441 268.427 343.136C269.642 342.832 270.906 342.781 272.142 342.986C273.377 343.19 274.557 343.647 275.608 344.327C276.659 345.006 277.559 345.895 278.252 346.937C278.944 347.979 279.414 349.152 279.633 350.383C279.852 351.614 279.814 352.877 279.523 354.094C279.232 355.31 278.693 356.453 277.94 357.452Z" fill="#315EFB"/>
<path opacity="0.1" d="M277.285 404.978C272.797 407.239 255.714 405.674 255.714 405.674C255.714 405.674 264.633 391.003 269.121 388.741C270.197 388.096 271.395 387.68 272.639 387.518C273.884 387.356 275.148 387.452 276.354 387.8C277.56 388.148 278.68 388.741 279.646 389.541C280.612 390.341 281.402 391.331 281.967 392.45C282.533 393.569 282.861 394.792 282.931 396.043C283.001 397.294 282.812 398.547 282.376 399.722C281.939 400.897 281.265 401.969 280.395 402.872C279.525 403.775 278.477 404.489 277.318 404.969L277.285 404.978Z" fill="#315EFB"/>
<path opacity="0.1" d="M268.682 440.814C264.641 443.796 247.501 445.146 247.501 445.146C247.501 445.146 253.806 429.183 257.855 426.193C259.803 425.011 262.124 424.599 264.361 425.04C266.597 425.481 268.588 426.742 269.941 428.574C271.293 430.407 271.91 432.678 271.669 434.942C271.428 437.206 270.348 439.297 268.64 440.806L268.682 440.814Z" fill="#315EFB"/>
<path opacity="0.1" d="M240.515 369.92C244.124 373.416 260.924 377.044 260.924 377.044C260.924 377.044 256.776 360.385 253.2 356.881C252.366 355.947 251.348 355.195 250.21 354.671C249.071 354.147 247.837 353.863 246.584 353.837C245.331 353.81 244.086 354.042 242.926 354.517C241.767 354.992 240.718 355.7 239.844 356.598C238.971 357.495 238.292 358.563 237.85 359.734C237.408 360.905 237.213 362.155 237.276 363.405C237.339 364.655 237.659 365.878 238.216 366.999C238.773 368.12 239.556 369.114 240.515 369.92Z" fill="#315EFB"/>
<path opacity="0.1" d="M230.999 411.969C235.487 414.231 252.57 412.665 252.57 412.665C252.57 412.665 243.684 397.994 239.196 395.774C237.068 394.892 234.684 394.846 232.524 395.646C230.363 396.446 228.586 398.032 227.548 400.087C226.511 402.141 226.29 404.511 226.93 406.721C227.57 408.931 229.024 410.818 230.999 412.002V411.969Z" fill="#315EFB"/>
<path opacity="0.1" d="M227.348 454.101C231.389 457.084 248.529 458.434 248.529 458.434C248.529 458.434 242.224 442.471 238.175 439.48C237.226 438.642 236.113 438.01 234.906 437.626C233.699 437.241 232.426 437.111 231.166 437.244C229.906 437.378 228.688 437.772 227.589 438.401C226.49 439.03 225.534 439.881 224.782 440.9C224.031 441.918 223.5 443.081 223.223 444.316C222.947 445.55 222.93 446.829 223.176 448.07C223.421 449.311 223.922 450.487 224.648 451.524C225.373 452.561 226.307 453.436 227.39 454.093L227.348 454.101Z" fill="#315EFB"/>
<path d="M496.669 480.03C496.669 480.03 484.589 439.066 498.934 408.921C505.035 396.313 506.875 382.07 504.177 368.329C502.845 361.816 500.918 355.438 498.42 349.276" stroke="#535461" stroke-width="2" stroke-miterlimit="10"/>
<path d="M507.346 330.232C507.346 335.252 498.22 349.806 498.22 349.806C498.22 349.806 489.094 335.252 489.094 330.232C489.264 327.937 490.297 325.793 491.985 324.227C493.673 322.662 495.892 321.792 498.195 321.792C500.499 321.792 502.718 322.662 504.406 324.227C506.094 325.793 507.127 327.937 507.297 330.232H507.346Z" fill="#FFB7B7"/>
<path d="M522.396 358.032C519.667 362.249 504.103 369.522 504.103 369.522C504.103 369.522 504.385 352.366 507.114 348.15C507.72 347.055 508.544 346.096 509.537 345.334C510.529 344.571 511.668 344.02 512.883 343.716C514.098 343.412 515.362 343.361 516.597 343.565C517.833 343.77 519.013 344.227 520.064 344.906C521.115 345.586 522.015 346.475 522.707 347.517C523.4 348.559 523.87 349.732 524.089 350.963C524.308 352.194 524.27 353.457 523.979 354.673C523.688 355.89 523.149 357.033 522.396 358.032Z" fill="#FFB7B7"/>
<path d="M521.766 405.557C517.278 407.819 500.195 406.253 500.195 406.253C500.195 406.253 509.114 391.582 513.602 389.321C514.679 388.67 515.88 388.248 517.128 388.083C518.376 387.918 519.645 388.012 520.855 388.361C522.065 388.709 523.19 389.303 524.158 390.106C525.127 390.91 525.919 391.904 526.484 393.028C527.049 394.152 527.375 395.38 527.441 396.635C527.508 397.891 527.313 399.146 526.87 400.323C526.427 401.5 525.745 402.573 524.866 403.473C523.988 404.374 522.932 405.084 521.766 405.557Z" fill="#FFB7B7"/>
<path d="M513.129 441.394C509.089 444.376 491.948 445.726 491.948 445.726C491.948 445.726 498.254 429.763 502.302 426.773C504.251 425.591 506.571 425.179 508.808 425.62C511.045 426.061 513.035 427.322 514.388 429.154C515.741 430.987 516.357 433.258 516.116 435.522C515.876 437.786 514.795 439.877 513.088 441.386L513.129 441.394Z" fill="#FFB7B7"/>
<path d="M484.979 370.5C488.588 373.996 505.388 377.624 505.388 377.624C505.388 377.624 501.24 360.965 497.664 357.461C496.83 356.527 495.812 355.775 494.674 355.251C493.535 354.727 492.301 354.443 491.048 354.417C489.795 354.39 488.55 354.621 487.39 355.097C486.231 355.572 485.182 356.28 484.308 357.178C483.435 358.075 482.756 359.143 482.314 360.314C481.872 361.485 481.677 362.735 481.74 363.985C481.803 365.234 482.123 366.458 482.68 367.579C483.238 368.7 484.02 369.694 484.979 370.5Z" fill="#FFB7B7"/>
<path d="M475.446 412.549C479.935 414.811 497.017 413.245 497.017 413.245C497.017 413.245 488.099 398.574 483.61 396.313C481.482 395.431 479.099 395.385 476.938 396.185C474.778 396.985 473 398.571 471.963 400.625C470.925 402.679 470.704 405.05 471.344 407.26C471.984 409.47 473.438 411.357 475.413 412.541L475.446 412.549Z" fill="#FFB7B7"/>
<path d="M471.805 454.681C475.845 457.664 492.985 459.014 492.985 459.014C492.985 459.014 486.68 443.051 482.631 440.06C480.683 438.878 478.362 438.467 476.125 438.908C473.889 439.348 471.898 440.609 470.546 442.441C469.193 444.274 468.576 446.546 468.817 448.809C469.058 451.073 470.138 453.165 471.846 454.673L471.805 454.681Z" fill="#FFB7B7"/>
<path opacity="0.1" d="M507.346 330.232C507.346 335.252 498.22 349.806 498.22 349.806C498.22 349.806 489.094 335.252 489.094 330.232C489.264 327.937 490.297 325.793 491.985 324.227C493.673 322.662 495.892 321.792 498.195 321.792C500.499 321.792 502.718 322.662 504.406 324.227C506.094 325.793 507.127 327.937 507.297 330.232H507.346Z" fill="#FFB7B7"/>
<path opacity="0.1" d="M522.396 358.032C519.667 362.249 504.103 369.522 504.103 369.522C504.103 369.522 504.385 352.366 507.114 348.15C507.72 347.055 508.544 346.096 509.537 345.334C510.529 344.571 511.668 344.02 512.883 343.716C514.098 343.412 515.362 343.361 516.597 343.565C517.833 343.77 519.013 344.227 520.064 344.906C521.115 345.586 522.015 346.475 522.707 347.517C523.4 348.559 523.87 349.732 524.089 350.963C524.308 352.194 524.27 353.457 523.979 354.673C523.688 355.89 523.149 357.033 522.396 358.032Z" fill="#FFB7B7"/>
<path opacity="0.1" d="M521.766 405.557C517.278 407.819 500.195 406.253 500.195 406.253C500.195 406.253 509.114 391.582 513.602 389.321C514.679 388.67 515.88 388.248 517.128 388.083C518.376 387.918 519.645 388.012 520.855 388.361C522.065 388.709 523.19 389.303 524.158 390.106C525.127 390.91 525.919 391.904 526.484 393.028C527.049 394.152 527.375 395.38 527.441 396.635C527.508 397.891 527.313 399.146 526.87 400.323C526.427 401.5 525.745 402.573 524.866 403.473C523.988 404.374 522.932 405.084 521.766 405.557Z" fill="#FFB7B7"/>
<path opacity="0.1" d="M513.129 441.394C509.089 444.376 491.948 445.726 491.948 445.726C491.948 445.726 498.254 429.763 502.302 426.773C504.251 425.591 506.571 425.179 508.808 425.62C511.045 426.061 513.035 427.322 514.388 429.154C515.741 430.987 516.357 433.258 516.116 435.522C515.876 437.786 514.795 439.877 513.088 441.386L513.129 441.394Z" fill="#FFB7B7"/>
<path opacity="0.1" d="M484.979 370.5C488.588 373.996 505.388 377.624 505.388 377.624C505.388 377.624 501.24 360.965 497.664 357.461C496.83 356.527 495.812 355.775 494.674 355.251C493.535 354.727 492.301 354.443 491.048 354.417C489.795 354.39 488.55 354.621 487.39 355.097C486.231 355.572 485.182 356.28 484.308 357.178C483.435 358.075 482.756 359.143 482.314 360.314C481.872 361.485 481.677 362.735 481.74 363.985C481.803 365.234 482.123 366.458 482.68 367.579C483.238 368.7 484.02 369.694 484.979 370.5Z" fill="#FFB7B7"/>
<path opacity="0.1" d="M475.446 412.549C479.935 414.811 497.017 413.245 497.017 413.245C497.017 413.245 488.099 398.574 483.61 396.313C481.482 395.431 479.099 395.385 476.938 396.185C474.778 396.985 473 398.571 471.963 400.625C470.925 402.679 470.704 405.05 471.344 407.26C471.984 409.47 473.438 411.357 475.413 412.541L475.446 412.549Z" fill="#FFB7B7"/>
<path opacity="0.1" d="M471.805 454.681C475.845 457.664 492.985 459.014 492.985 459.014C492.985 459.014 486.68 443.051 482.631 440.06C480.683 438.878 478.362 438.467 476.125 438.908C473.889 439.348 471.898 440.609 470.546 442.441C469.193 444.274 468.576 446.546 468.817 448.809C469.058 451.073 470.138 453.165 471.846 454.673L471.805 454.681Z" fill="#FFB7B7"/>
<path opacity="0.5" d="M555.781 12.6827H550.571C551.065 12.7062 551.558 12.6295 552.021 12.4571C552.484 12.2847 552.907 12.0204 553.264 11.68C553.622 11.3396 553.906 10.9303 554.101 10.4768C554.295 10.0234 554.396 9.5352 554.396 9.04191C554.396 8.54862 554.295 8.06047 554.101 7.60702C553.906 7.15356 553.622 6.74424 553.264 6.40385C552.907 6.06345 552.484 5.79907 552.021 5.62671C551.558 5.45435 551.065 5.3776 550.571 5.40111H508.326C507.389 5.44575 506.505 5.84882 505.857 6.52672C505.21 7.20461 504.849 8.10529 504.849 9.04191C504.849 9.97853 505.21 10.8792 505.857 11.5571C506.505 12.235 507.389 12.6381 508.326 12.6827H513.536C512.599 12.7273 511.715 13.1304 511.068 13.8083C510.42 14.4862 510.059 15.3869 510.059 16.3235C510.059 17.2601 510.42 18.1608 511.068 18.8387C511.715 19.5166 512.599 19.9197 513.536 19.9643H506.243C505.75 19.9408 505.257 20.0175 504.794 20.1899C504.331 20.3623 503.908 20.6266 503.55 20.967C503.193 21.3074 502.908 21.7167 502.713 22.1702C502.519 22.6237 502.419 23.1118 502.419 23.6051C502.419 24.0984 502.519 24.5865 502.713 25.04C502.908 25.4934 503.193 25.9028 503.55 26.2432C503.908 26.5835 504.331 26.8479 504.794 27.0203C505.257 27.1927 505.75 27.2694 506.243 27.2459H548.456C548.949 27.2694 549.442 27.1927 549.905 27.0203C550.368 26.8479 550.791 26.5835 551.149 26.2432C551.506 25.9028 551.791 25.4934 551.985 25.04C552.18 24.5865 552.28 24.0984 552.28 23.6051C552.28 23.1118 552.18 22.6237 551.985 22.1702C551.791 21.7167 551.506 21.3074 551.149 20.967C550.791 20.6266 550.368 20.3623 549.905 20.1899C549.442 20.0175 548.949 19.9408 548.456 19.9643H555.781C556.718 19.9197 557.602 19.5166 558.249 18.8387C558.897 18.1608 559.258 17.2601 559.258 16.3235C559.258 15.3869 558.897 14.4862 558.249 13.8083C557.602 13.1304 556.718 12.7273 555.781 12.6827Z" fill="#DEE3F3"/>
<path opacity="0.5" d="M311.682 33.9228H307.717C308.094 33.9434 308.471 33.887 308.826 33.7571C309.181 33.6271 309.505 33.4263 309.779 33.167C310.054 32.9077 310.272 32.5952 310.421 32.2487C310.571 31.9023 310.648 31.529 310.648 31.1518C310.648 30.7746 310.571 30.4014 310.421 30.0549C310.272 29.7084 310.054 29.396 309.779 29.1367C309.505 28.8773 309.181 28.6765 308.826 28.5466C308.471 28.4166 308.094 28.3603 307.717 28.3809H275.593C274.883 28.4196 274.215 28.7285 273.726 29.2439C273.237 29.7593 272.965 30.4421 272.965 31.1518C272.965 31.8616 273.237 32.5444 273.726 33.0598C274.215 33.5752 274.883 33.8841 275.593 33.9228H279.558C279.181 33.9022 278.804 33.9586 278.449 34.0886C278.094 34.2185 277.77 34.4193 277.496 34.6786C277.221 34.938 277.003 35.2504 276.854 35.5969C276.704 35.9434 276.627 36.3166 276.627 36.6938C276.627 37.071 276.704 37.4442 276.854 37.7907C277.003 38.1372 277.221 38.4496 277.496 38.709C277.77 38.9683 278.094 39.1691 278.449 39.299C278.804 39.429 279.181 39.4854 279.558 39.4648H274.008C273.631 39.4442 273.253 39.5006 272.899 39.6305C272.544 39.7605 272.22 39.9612 271.945 40.2206C271.671 40.4799 271.453 40.7924 271.303 41.1388C271.154 41.4853 271.077 41.8586 271.077 42.2358C271.077 42.613 271.154 42.9862 271.303 43.3327C271.453 43.6792 271.671 43.9916 271.945 44.2509C272.22 44.5103 272.544 44.7111 272.899 44.841C273.253 44.9709 273.631 45.0274 274.008 45.0068H306.132C306.509 45.0274 306.887 44.9709 307.241 44.841C307.596 44.7111 307.92 44.5103 308.195 44.2509C308.469 43.9916 308.687 43.6792 308.837 43.3327C308.986 42.9862 309.063 42.613 309.063 42.2358C309.063 41.8586 308.986 41.4853 308.837 41.1388C308.687 40.7924 308.469 40.4799 308.195 40.2206C307.92 39.9612 307.596 39.7605 307.241 39.6305C306.887 39.5006 306.509 39.4442 306.132 39.4648H311.682C312.392 39.426 313.06 39.1172 313.549 38.6018C314.038 38.0864 314.31 37.4036 314.31 36.6938C314.31 35.984 314.038 35.3012 313.549 34.7858C313.06 34.2704 312.392 33.9616 311.682 33.9228Z" fill="#DEE3F3"/>
<path d="M42.0465 426.425C42.0465 426.425 56.5653 454.88 44.7345 470.446C32.9038 486.011 45.8131 528.433 45.8131 528.433" stroke="#F0B00A" stroke-miterlimit="10"/>
<path d="M46.3774 417.528C46.3774 423.012 42.3453 427.468 42.3453 427.468C42.3453 427.468 38.3132 423.02 38.3132 417.528C38.3132 412.035 42.3453 407.587 42.3453 407.587C42.3453 407.587 46.3774 412.044 46.3774 417.528Z" fill="#F0B00A"/>
<path d="M49.5715 426.425C49.5715 426.425 35.0527 454.88 46.8835 470.446C58.7142 486.011 45.8049 528.433 45.8049 528.433" stroke="#F0B00A" stroke-miterlimit="10"/>
<path d="M45.2739 417.528C45.2739 423.012 49.306 427.468 49.306 427.468C49.306 427.468 53.3381 423.02 53.3381 417.528C53.3381 412.035 49.306 407.587 49.306 407.587C49.306 407.587 45.2739 412.044 45.2739 417.528Z" fill="#F0B00A"/>
<path opacity="0.1" d="M45.2739 417.528C45.2739 423.012 49.306 427.468 49.306 427.468C49.306 427.468 53.3381 423.02 53.3381 417.528C53.3381 412.035 49.306 407.587 49.306 407.587C49.306 407.587 45.2739 412.044 45.2739 417.528Z" fill="black"/>
<path d="M55.5035 426.425C55.5035 426.425 70.0224 454.88 58.1916 470.446C46.3608 486.011 59.2701 528.433 59.2701 528.433" stroke="#F0B00A" stroke-miterlimit="10"/>
<path d="M59.7927 417.528C59.7927 423.012 55.7606 427.468 55.7606 427.468C55.7606 427.468 51.7285 423.02 51.7285 417.528C51.7285 412.035 55.7606 407.587 55.7606 407.587C55.7606 407.587 59.7927 412.044 59.7927 417.528Z" fill="#F0B00A"/>
<path d="M57.5279 440.325C53.7198 444.277 47.7214 444.691 47.7214 444.691C47.7214 444.691 47.904 438.693 51.712 434.75C55.5201 430.807 61.5185 430.385 61.5185 430.385C61.5185 430.385 61.3111 436.366 57.5279 440.325Z" fill="#F0B00A"/>
<path d="M57.9095 459.958C54.1014 463.91 48.103 464.324 48.103 464.324C48.103 464.324 48.2855 458.326 52.0936 454.383C55.9017 450.44 61.9001 450.017 61.9001 450.017C61.9001 450.017 61.7176 455.998 57.9095 459.958Z" fill="#F0B00A"/>
<path d="M37.2512 470.752C40.8519 474.894 40.7274 480.892 40.7274 480.892C40.7274 480.892 34.7622 480.171 31.1616 476.029C27.5609 471.887 27.6853 465.89 27.6853 465.89C27.6853 465.89 33.6505 466.61 37.2512 470.752Z" fill="#F0B00A"/>
<path d="M40.5697 428.91C45.1494 431.942 46.6345 437.757 46.6345 437.757C46.6345 437.757 40.6942 438.66 36.1145 435.628C31.5349 432.596 30.0498 426.781 30.0498 426.781C30.0498 426.781 36.015 425.861 40.5697 428.91Z" fill="#F0B00A"/>
<path opacity="0.1" d="M40.5697 428.91C45.1494 431.942 46.6345 437.757 46.6345 437.757C46.6345 437.757 40.6942 438.66 36.1145 435.628C31.5349 432.596 30.0498 426.781 30.0498 426.781C30.0498 426.781 36.015 425.861 40.5697 428.91Z" fill="black"/>
<path d="M63.0117 426.425C63.0117 426.425 48.4929 454.88 60.3237 470.446C72.1545 486.011 59.2451 528.433 59.2451 528.433" stroke="#F0B00A" stroke-miterlimit="10"/>
<path d="M58.7141 417.528C58.7141 423.012 62.7462 427.468 62.7462 427.468C62.7462 427.468 66.7783 423.02 66.7783 417.528C66.7783 412.035 62.7462 407.587 62.7462 407.587C62.7462 407.587 58.7141 412.044 58.7141 417.528Z" fill="#F0B00A"/>
<path opacity="0.1" d="M58.7141 417.528C58.7141 423.012 62.7462 427.468 62.7462 427.468C62.7462 427.468 66.7783 423.02 66.7783 417.528C66.7783 412.035 62.7462 407.587 62.7462 407.587C62.7462 407.587 58.7141 412.044 58.7141 417.528Z" fill="black"/>
<path d="M59.8758 440.748C56.0179 444.658 55.7275 450.688 55.7275 450.688C55.7275 450.688 61.7259 450.349 65.5838 446.439C69.4416 442.529 69.732 436.498 69.732 436.498C69.732 436.498 63.7337 436.838 59.8758 440.748Z" fill="#F0B00A"/>
<path opacity="0.1" d="M59.8758 440.748C56.0179 444.658 55.7275 450.688 55.7275 450.688C55.7275 450.688 61.7259 450.349 65.5838 446.439C69.4416 442.529 69.732 436.498 69.732 436.498C69.732 436.498 63.7337 436.838 59.8758 440.748Z" fill="black"/>
<path d="M67.4339 467.927C63.576 471.837 63.2856 477.868 63.2856 477.868C63.2856 477.868 69.284 477.528 73.1419 473.618C76.9997 469.708 77.2901 463.678 77.2901 463.678C77.2901 463.678 71.2669 464.017 67.4339 467.927Z" fill="#F0B00A"/>
<path d="M56.3333 461.955C56.3333 461.955 65.0695 448.203 77.34 447.872" stroke="#F0B00A" stroke-miterlimit="10"/>
<path d="M49.505 453.646C49.505 453.646 40.7688 439.894 28.4983 439.563" stroke="#F0B00A" stroke-miterlimit="10"/>
<path d="M48.3684 473.279C48.3684 473.279 57.1046 459.527 69.3751 459.196" stroke="#F0B00A" stroke-miterlimit="10"/>
<path d="M76.9168 450.059C78.1677 450.059 79.1817 449.046 79.1817 447.797C79.1817 446.548 78.1677 445.536 76.9168 445.536C75.6659 445.536 74.6519 446.548 74.6519 447.797C74.6519 449.046 75.6659 450.059 76.9168 450.059Z" fill="#F0B00A"/>
<path d="M28.7142 441.94C29.9651 441.94 30.9791 440.928 30.9791 439.679C30.9791 438.43 29.9651 437.417 28.7142 437.417C27.4633 437.417 26.4492 438.43 26.4492 439.679C26.4492 440.928 27.4633 441.94 28.7142 441.94Z" fill="#F0B00A"/>
<path d="M54.7982 477.785C54.7982 477.785 46.062 464.034 33.7915 463.702" stroke="#F0B00A" stroke-miterlimit="10"/>
<path d="M34.0074 466.096C35.2583 466.096 36.2723 465.084 36.2723 463.835C36.2723 462.586 35.2583 461.573 34.0074 461.573C32.7565 461.573 31.7424 462.586 31.7424 463.835C31.7424 465.084 32.7565 466.096 34.0074 466.096Z" fill="#F0B00A"/>
<path d="M69.5411 461.574C70.792 461.574 71.806 460.561 71.806 459.312C71.806 458.063 70.792 457.051 69.5411 457.051C68.2902 457.051 67.2761 458.063 67.2761 459.312C67.2761 460.561 68.2902 461.574 69.5411 461.574Z" fill="#F0B00A"/>
<path d="M103.109 511.874C103.109 511.874 82.0522 507.665 76.4272 502.057C70.8022 496.449 45.5477 486.641 42.7352 493.649C39.9227 500.657 4.82858 524.49 28.6976 528.698C52.5665 532.907 84.8565 534.307 91.8753 531.498C98.8941 528.69 103.109 511.874 103.109 511.874Z" fill="#A8A8A8"/>
<path opacity="0.2" d="M28.6974 526.089C52.5664 530.297 84.8563 531.697 91.8752 528.889C97.2181 526.752 100.935 516.463 102.403 511.725L103.109 511.874C103.109 511.874 98.894 528.698 91.8752 531.498C84.8563 534.298 52.5664 532.898 28.6974 528.698C21.8114 527.481 19.8368 524.631 20.5835 521.028C21.1642 523.347 23.5702 525.186 28.6974 526.089Z" fill="black"/>
<path d="M742.394 432.87C742.394 432.87 749.347 441.982 739.184 455.65C729.02 469.319 720.641 480.925 724.034 489.474C724.034 489.474 739.366 464.017 751.844 463.661C764.322 463.305 756.125 448.17 742.394 432.87Z" fill="#F0B00A"/>
<path opacity="0.1" d="M742.394 432.87C743 433.748 743.478 434.707 743.813 435.719C755.992 450.001 762.472 463.33 750.774 463.669C739.872 463.984 726.797 483.443 723.661 488.364C723.764 488.743 723.889 489.117 724.034 489.482C724.034 489.482 739.366 464.026 751.844 463.669C764.322 463.313 756.125 448.17 742.394 432.87Z" fill="black"/>
<path d="M755.32 444.434C755.32 447.632 754.963 450.233 754.491 450.233C754.018 450.233 753.661 447.64 753.661 444.434C753.661 441.228 754.109 442.777 754.549 442.777C754.988 442.777 755.32 441.245 755.32 444.434Z" fill="#FFD037"/>
<path d="M759.759 448.253C756.946 449.786 754.499 450.738 754.291 450.316C754.084 449.893 756.183 448.369 758.995 446.845C761.808 445.321 760.696 446.431 760.912 446.845C761.128 447.259 762.563 446.721 759.759 448.253Z" fill="#FFD037"/>
<path d="M705.674 432.87C705.674 432.87 698.721 441.982 708.885 455.65C719.048 469.319 727.427 480.925 724.034 489.474C724.034 489.474 708.702 464.017 696.224 463.661C683.746 463.305 691.943 448.17 705.674 432.87Z" fill="#F0B00A"/>
<path opacity="0.1" d="M705.674 432.87C705.068 433.748 704.59 434.707 704.255 435.719C692.076 450.001 685.596 463.33 697.294 463.669C708.196 463.984 721.271 483.443 724.407 488.364C724.304 488.743 724.179 489.117 724.034 489.482C724.034 489.482 708.702 464.026 696.224 463.669C683.746 463.313 691.943 448.17 705.674 432.87Z" fill="black"/>
<path d="M692.748 444.434C692.748 447.632 693.105 450.233 693.578 450.233C694.051 450.233 694.407 447.64 694.407 444.434C694.407 441.228 693.959 442.777 693.52 442.777C693.08 442.777 692.748 441.245 692.748 444.434Z" fill="#FFD037"/>
<path d="M688.309 448.253C691.122 449.786 693.569 450.738 693.777 450.316C693.984 449.893 691.885 448.369 689.073 446.845C686.26 445.321 687.372 446.431 687.156 446.845C686.941 447.259 685.497 446.721 688.309 448.253Z" fill="#FFD037"/>
<path d="M694.963 488.281C694.963 488.281 714.402 487.685 720.259 483.518C726.117 479.351 750.127 474.405 751.612 481.033C753.097 487.66 780.824 514.26 758.88 514.434C736.935 514.607 707.889 511.021 702.04 507.467C696.191 503.913 694.963 488.281 694.963 488.281Z" fill="#A8A8A8"/>
<path opacity="0.2" d="M759.269 512.139C737.325 512.313 708.279 508.726 702.43 505.172C697.975 502.463 696.2 492.746 695.61 488.264H694.963C694.963 488.264 696.191 503.921 702.04 507.475C707.889 511.029 736.935 514.624 758.879 514.442C765.218 514.392 767.4 512.139 767.284 508.809C766.404 510.838 764.023 512.097 759.269 512.139Z" fill="black"/>
<path opacity="0.5" d="M147.545 61.8314H142.334C142.828 61.8549 143.321 61.7782 143.784 61.6058C144.247 61.4334 144.67 61.169 145.027 60.8287C145.385 60.4883 145.67 60.0789 145.864 59.6255C146.059 59.172 146.159 58.6839 146.159 58.1906C146.159 57.6973 146.059 57.2092 145.864 56.7557C145.67 56.3022 145.385 55.8929 145.027 55.5525C144.67 55.2121 144.247 54.9478 143.784 54.7754C143.321 54.603 142.828 54.5263 142.334 54.5498H100.122C99.1849 54.5944 98.3011 54.9975 97.6538 55.6754C97.0065 56.3533 96.6454 57.254 96.6454 58.1906C96.6454 59.1272 97.0065 60.0279 97.6538 60.7058C98.3011 61.3837 99.1849 61.7868 100.122 61.8314H105.332C104.395 61.876 103.511 62.2791 102.864 62.957C102.217 63.6349 101.856 64.5356 101.856 65.4722C101.856 66.4088 102.217 67.3095 102.864 67.9874C103.511 68.6653 104.395 69.0683 105.332 69.113H98.0395C97.1025 69.1576 96.2187 69.5607 95.5714 70.2386C94.9241 70.9165 94.563 71.8172 94.563 72.7538C94.563 73.6904 94.9241 74.5911 95.5714 75.269C96.2187 75.9469 97.1025 76.35 98.0395 76.3946H140.252C140.745 76.4181 141.239 76.3413 141.701 76.169C142.164 75.9966 142.587 75.7322 142.945 75.3918C143.302 75.0515 143.587 74.6421 143.782 74.1887C143.976 73.7352 144.076 73.2471 144.076 72.7538C144.076 72.2605 143.976 71.7723 143.782 71.3189C143.587 70.8654 143.302 70.4561 142.945 70.1157C142.587 69.7753 142.164 69.511 141.701 69.3386C141.239 69.1662 140.745 69.0895 140.252 69.113H147.545C148.482 69.0683 149.365 68.6653 150.013 67.9874C150.66 67.3095 151.021 66.4088 151.021 65.4722C151.021 64.5356 150.66 63.6349 150.013 62.957C149.365 62.2791 148.482 61.876 147.545 61.8314Z" fill="#DEE3F3"/>
</g>
<defs>
<linearGradient id="paint0_linear" x1="382.053" y1="450.448" x2="382.053" y2="107.492" gradientUnits="userSpaceOnUse">
<stop stop-color="#808080" stop-opacity="0.25"/>
<stop offset="0.54" stop-color="#808080" stop-opacity="0.12"/>
<stop offset="1" stop-color="#808080" stop-opacity="0.1"/>
</linearGradient>
<linearGradient id="paint1_linear" x1="318.617" y1="392.741" x2="318.617" y2="392.701" gradientUnits="userSpaceOnUse">
<stop stop-color="#808080" stop-opacity="0.25"/>
<stop offset="0.54" stop-color="#808080" stop-opacity="0.12"/>
<stop offset="1" stop-color="#808080" stop-opacity="0.1"/>
</linearGradient>
<linearGradient id="paint2_linear" x1="53425.7" y1="167501" x2="53425.7" y2="75098.6" gradientUnits="userSpaceOnUse">
<stop stop-color="#808080" stop-opacity="0.25"/>
<stop offset="0.54" stop-color="#808080" stop-opacity="0.12"/>
<stop offset="1" stop-color="#808080" stop-opacity="0.1"/>
</linearGradient>
<linearGradient id="paint3_linear" x1="150500" y1="203043" x2="150500" y2="65812.2" gradientUnits="userSpaceOnUse">
<stop stop-color="#808080" stop-opacity="0.25"/>
<stop offset="0.54" stop-color="#808080" stop-opacity="0.12"/>
<stop offset="1" stop-color="#808080" stop-opacity="0.1"/>
</linearGradient>
<clipPath id="clip0">
<rect width="788" height="548" fill="white"/>
</clipPath>
</defs>
</svg>
