<svg width="921" height="791" viewBox="0 0 921 791" fill="none" xmlns="http://www.w3.org/2000/svg">
<g clip-path="url(#clip0)">
<path d="M73.9396 218.538C114.775 218.538 147.879 185.455 147.879 144.644C147.879 103.833 114.775 70.7499 73.9396 70.7499C33.1039 70.7499 0 103.833 0 144.644C0 185.455 33.1039 218.538 73.9396 218.538Z" fill="#F05A44"/>
<path d="M857.825 620.042C857.489 632.621 855.38 645.089 851.563 657.079C851.476 657.358 851.384 657.632 851.293 657.91H827.922C827.947 657.661 827.972 657.382 827.997 657.079C829.555 639.176 838.539 530.208 827.797 511.573C828.736 513.085 859.637 563.154 857.825 620.042Z" fill="#E6E6E6"/>
<path d="M856.072 657.079C855.877 657.358 855.673 657.636 855.465 657.91H837.933C838.066 657.673 838.219 657.395 838.398 657.079C841.294 651.855 849.867 636.235 857.825 620.042C866.378 602.641 874.224 584.579 873.563 578.042C873.766 579.517 879.684 624.461 856.072 657.079Z" fill="#E6E6E6"/>
<path d="M921 656.318H248.958V658.515H921V656.318Z" fill="#E6E6E6"/>
<path d="M679.128 724.922L682.392 698.005L774.618 674.351L764.008 642.541C771.399 621.355 784.375 610.969 808.081 621.334L848.859 646.65C852.822 649.11 856.05 652.59 858.207 656.724C860.363 660.859 861.368 665.497 861.116 670.152C860.867 674.826 859.359 679.347 856.752 683.236C854.146 687.125 850.537 690.238 846.306 692.247C800.656 713.873 742.474 722.148 679.128 724.922Z" fill="#FFB8B8"/>
<path d="M684.841 733.079L656.275 729.001L629.557 734.45C627.92 734.784 626.231 734.758 624.604 734.376C622.978 733.993 621.455 733.262 620.139 732.233C618.823 731.204 617.746 729.902 616.983 728.417C616.22 726.931 615.789 725.298 615.72 723.63C615.642 721.764 616.019 719.907 616.817 718.219C617.616 716.531 618.813 715.062 620.306 713.939L662.173 682.414C665.764 679.71 670.201 678.374 674.688 678.646C679.176 678.917 683.42 680.778 686.658 683.894L697.083 693.927C689.623 698.553 684.076 705.493 680.76 715.134C687.93 719.074 689.29 725.055 684.841 733.079Z" fill="#2F2E41"/>
<path d="M712.124 450.484C726.714 450.484 738.542 438.664 738.542 424.082C738.542 409.501 726.714 397.681 712.124 397.681C697.534 397.681 685.706 409.501 685.706 424.082C685.706 438.664 697.534 450.484 712.124 450.484Z" fill="#FFB8B8"/>
<path d="M753.398 476.147L694.227 501.024C699.036 476.893 701.433 454.911 694.227 441.481L732.178 436.995C730.294 447.316 739.896 461.137 753.398 476.147Z" fill="#FFB8B8"/>
<path d="M653.011 724.107L630.975 722.475C617.475 666.216 610.563 613.039 613.58 564.508C614.006 557.423 617.162 550.779 622.385 545.969C627.607 541.159 634.491 538.558 641.591 538.712C648.414 538.867 654.934 541.558 659.878 546.259L688.375 573.361C701.082 585.353 710.948 600.032 717.248 616.324C725.319 637.449 722.422 649.292 703.155 647.28C691.116 645.939 680.043 640.056 672.197 630.832L651.379 606.652L653.011 724.107Z" fill="#FFB8B8"/>
<path d="M635.946 790.96C633.057 790.772 630.251 789.921 627.745 788.475C625.238 787.028 623.099 785.024 621.492 782.618C619.885 780.213 618.854 777.469 618.479 774.601C618.103 771.733 618.394 768.817 619.328 766.079L623.629 753.47L626.894 721.66C631.923 711.404 639.045 712.938 647.298 720.844C652.545 720.329 653.671 715.086 653.011 707.793L669.556 730.052C670.972 731.957 671.851 734.207 672.102 736.567C672.352 738.927 671.964 741.311 670.979 743.47L654.327 779.974C652.741 783.453 650.132 786.367 646.849 788.329C643.566 790.291 639.763 791.209 635.946 790.96Z" fill="#2F2E41"/>
<path d="M844.4 643.764C814.202 660.893 804.738 661.39 774.619 673.536L748.502 658.854C717.829 670.189 696.313 654.651 673.007 631.529C688.258 606.142 681.513 573.152 690.962 573.618L804 609.099L808.897 621.334L844.4 643.764Z" fill="#2F2E41"/>
<path d="M808.081 617.255C768.168 634.521 725.194 616.241 688.514 576.065L664.226 478.037C663.939 476.957 663.876 475.83 664.042 474.725C664.207 473.62 664.597 472.561 665.188 471.612C665.779 470.664 666.558 469.846 667.477 469.21C668.396 468.574 669.436 468.133 670.532 467.914L698.716 462.28L712.59 484.303L740.34 459.833L769.809 469.462C773.728 470.742 777.225 473.062 779.926 476.174C782.627 479.286 784.432 483.073 785.147 487.131L808.081 617.255Z" fill="#315EFB"/>
<path opacity="0.2" d="M744.685 700.359C742.531 699.539 740.605 698.214 739.069 696.497C737.533 694.779 736.432 692.718 735.857 690.487C735.283 688.256 735.253 685.92 735.768 683.675C736.284 681.43 737.332 679.341 738.822 677.584L757.479 655.591L770.538 662.932L763.814 690.33C763.327 692.312 762.424 694.169 761.165 695.776C759.906 697.384 758.32 698.705 756.511 699.654C754.703 700.602 752.713 701.155 750.674 701.277C748.635 701.398 746.593 701.085 744.685 700.359Z" fill="black"/>
<path d="M744.685 697.096C742.531 696.276 740.605 694.952 739.069 693.234C737.533 691.516 736.432 689.455 735.857 687.224C735.283 684.993 735.253 682.657 735.768 680.412C736.284 678.167 737.332 676.078 738.822 674.321L757.479 652.329L770.538 659.67L763.813 687.067C763.327 689.05 762.424 690.906 761.165 692.514C759.906 694.121 758.32 695.443 756.511 696.391C754.703 697.339 752.713 697.893 750.674 698.014C748.635 698.136 746.594 697.823 744.685 697.096Z" fill="#FFB8B8"/>
<path d="M773.802 666.195L754.215 653.144L782.78 577.288L772.17 470.437L781.849 476.483C787.043 479.727 791.524 483.992 795.019 489.019C798.515 494.047 800.952 499.731 802.182 505.728L817.875 582.182C811.009 617.422 799.564 648.428 773.802 666.195Z" fill="#315EFB"/>
<path opacity="0.2" d="M761.968 545.07L771.762 594.01L763.707 622.632L761.968 545.07Z" fill="black"/>
<path d="M686.288 421.818C686.288 421.818 671.064 372.027 717.592 382.469C724.808 384.089 731.043 388.281 736.003 393.765C736.447 394.245 736.991 394.621 737.597 394.868C738.202 395.116 738.854 395.227 739.508 395.196C746.94 395.196 751.531 421.739 736.666 433.412C736.666 433.412 739.699 417.705 734.186 412.353C733.194 411.447 732.365 410.379 731.732 409.195C728.144 401.961 716.081 399.587 707.762 400.202C703.515 400.517 703.144 407.917 698.442 406.884C687.744 404.532 684.329 416.917 686.288 421.818Z" fill="#2F2E41"/>
<path d="M733.118 495.721L732.81 497.975L730.909 511.886L727.795 534.667L727.016 540.37C726.957 540.806 726.741 541.205 726.41 541.494C726.079 541.783 725.654 541.942 725.214 541.942H704.451C704.012 541.942 703.588 541.783 703.257 541.495C702.926 541.207 702.71 540.809 702.65 540.375L701.857 534.667L698.691 511.886L696.756 497.965L696.445 495.725C696.409 495.468 696.429 495.206 696.503 494.957C696.577 494.708 696.703 494.478 696.874 494.282C697.045 494.086 697.256 493.929 697.492 493.821C697.729 493.713 697.985 493.657 698.245 493.657H731.316C731.576 493.658 731.832 493.713 732.069 493.821C732.305 493.928 732.515 494.085 732.686 494.28C732.857 494.476 732.984 494.705 733.058 494.954C733.133 495.202 733.153 495.464 733.118 495.721Z" fill="#E6E6E6"/>
<path d="M700.436 487.622H729.233C729.471 487.622 729.708 487.669 729.928 487.76C730.149 487.852 730.35 487.986 730.518 488.154C730.687 488.323 730.821 488.523 730.913 488.744C731.004 488.964 731.051 489.201 731.051 489.439V491.84C731.051 492.322 730.859 492.785 730.518 493.125C730.177 493.466 729.715 493.658 729.233 493.658H700.436C699.954 493.658 699.492 493.466 699.151 493.125C698.81 492.785 698.618 492.322 698.618 491.84V489.439C698.618 489.201 698.665 488.964 698.756 488.744C698.848 488.523 698.982 488.323 699.151 488.154C699.319 487.986 699.52 487.852 699.74 487.76C699.961 487.669 700.198 487.622 700.436 487.622Z" fill="#3F3D56"/>
<path d="M735.719 496.675C721.837 498.19 707.832 498.19 693.95 496.675C693.711 496.675 693.474 496.628 693.254 496.537C693.033 496.446 692.833 496.312 692.664 496.143C692.495 495.974 692.361 495.774 692.27 495.554C692.178 495.333 692.131 495.097 692.131 494.858V492.457C692.131 492.219 692.178 491.982 692.27 491.762C692.361 491.541 692.495 491.341 692.664 491.172C692.833 491.003 693.033 490.87 693.254 490.778C693.474 490.687 693.711 490.64 693.95 490.64C707.821 492.344 721.848 492.344 735.719 490.64C736.201 490.64 736.664 490.831 737.005 491.172C737.346 491.513 737.538 491.975 737.538 492.457V494.858C737.538 495.34 737.346 495.802 737.005 496.143C736.664 496.484 736.201 496.675 735.719 496.675Z" fill="#3F3D56"/>
<path d="M713.992 524.565C718.326 524.565 721.84 521.053 721.84 516.721C721.84 512.389 718.326 508.877 713.992 508.877C709.657 508.877 706.143 512.389 706.143 516.721C706.143 521.053 709.657 524.565 713.992 524.565Z" fill="white"/>
<path d="M734.169 533.223C734.408 535.514 734.093 537.829 733.251 539.974C732.409 542.118 731.065 544.029 729.331 545.547C727.597 547.065 725.524 548.146 723.286 548.697C721.048 549.249 718.71 549.256 716.469 548.719L688.416 541.988L689.087 527.029L716.589 520.678C718.579 520.219 720.644 520.187 722.647 520.586C724.651 520.984 726.546 521.804 728.209 522.99C729.871 524.176 731.262 525.702 732.29 527.466C733.317 529.23 733.958 531.192 734.169 533.223Z" fill="#FFB8B8"/>
<path d="M696.267 544.662L620.559 546.553C617.826 546.622 615.111 546.094 612.603 545.006C610.095 543.918 607.855 542.297 606.038 540.256C604.221 538.215 602.871 535.802 602.083 533.186C601.295 530.57 601.086 527.813 601.473 525.109C602.079 520.871 604.114 516.967 607.242 514.042L642.888 480.717C649.499 474.536 657.737 470.367 666.635 468.7L679.128 466.359L686.473 521.824L644.033 516.93L693.819 522.639L696.267 544.662Z" fill="#315EFB"/>
<path d="M596.528 707.417H403.247C401.529 707.417 399.88 706.734 398.665 705.52C397.449 704.305 396.767 702.658 396.767 700.94C466.831 692.802 535.578 692.802 603.008 700.94C603.008 702.658 602.326 704.305 601.11 705.52C599.895 706.734 598.246 707.417 596.528 707.417Z" fill="#2F2E41"/>
<path d="M603.008 701.321L396.767 700.94L420.669 660.746L420.784 660.555V571.971C420.784 570.896 420.995 569.831 421.407 568.838C421.819 567.845 422.422 566.942 423.183 566.182C423.944 565.421 424.847 564.818 425.841 564.407C426.835 563.995 427.9 563.784 428.976 563.784H569.655C570.731 563.784 571.796 563.995 572.79 564.407C573.784 564.818 574.688 565.421 575.448 566.182C576.209 566.942 576.813 567.845 577.224 568.838C577.636 569.831 577.848 570.896 577.848 571.971V661.165L603.008 701.321Z" fill="#3F3D56"/>
<path d="M428.789 569.499C428.082 569.499 427.404 569.781 426.903 570.281C426.403 570.781 426.122 571.459 426.121 572.166V652.935C426.122 653.642 426.403 654.32 426.903 654.82C427.404 655.32 428.082 655.601 428.789 655.602H570.986C571.693 655.601 572.371 655.32 572.872 654.82C573.372 654.32 573.653 653.642 573.654 652.935V572.166C573.653 571.459 573.372 570.781 572.872 570.281C572.371 569.781 571.693 569.5 570.986 569.499L428.789 569.499Z" fill="white"/>
<path d="M429.724 666.27C429.505 666.27 429.291 666.333 429.107 666.451C428.923 666.569 428.776 666.737 428.685 666.935L421.32 682.937C421.239 683.111 421.204 683.302 421.218 683.494C421.231 683.685 421.292 683.87 421.395 684.031C421.499 684.193 421.641 684.325 421.81 684.417C421.978 684.509 422.167 684.558 422.358 684.558H577.244C577.439 684.558 577.631 684.508 577.801 684.413C577.971 684.318 578.115 684.181 578.217 684.015C578.319 683.85 578.378 683.661 578.387 683.466C578.395 683.271 578.354 683.078 578.267 682.903L570.261 666.902C570.167 666.712 570.021 666.552 569.84 666.44C569.659 666.328 569.451 666.269 569.238 666.27L429.724 666.27Z" fill="#2F2E41"/>
<path d="M499.316 568.165C500.263 568.165 501.031 567.398 501.031 566.451C501.031 565.504 500.263 564.736 499.316 564.736C498.368 564.736 497.6 565.504 497.6 566.451C497.6 567.398 498.368 568.165 499.316 568.165Z" fill="white"/>
<path d="M484.092 687.605C483.84 687.606 483.596 687.688 483.396 687.841C483.197 687.994 483.053 688.208 482.987 688.451L481.14 695.309C481.094 695.478 481.088 695.656 481.122 695.828C481.156 696 481.23 696.162 481.336 696.301C481.443 696.441 481.581 696.553 481.738 696.631C481.895 696.709 482.069 696.749 482.244 696.749H517.379C517.562 696.749 517.741 696.705 517.903 696.622C518.065 696.538 518.205 696.417 518.311 696.269C518.416 696.121 518.485 695.949 518.511 695.769C518.537 695.588 518.519 695.404 518.46 695.232L516.084 688.374C516.006 688.15 515.861 687.955 515.667 687.817C515.473 687.679 515.241 687.605 515.004 687.605H484.092Z" fill="#2F2E41"/>
<path d="M577.848 659.221V660.746H420.669L420.787 660.555V659.221H577.848Z" fill="#2F2E41"/>
<path d="M354.074 608.394C354.506 624.516 357.208 640.496 362.101 655.865C362.213 656.222 362.33 656.573 362.447 656.93H392.402C392.37 656.61 392.338 656.253 392.306 655.865C390.309 632.917 378.793 493.252 392.562 469.367C391.358 471.305 351.752 535.479 354.074 608.394Z" fill="#E6E6E6"/>
<path d="M356.322 655.865C356.572 656.221 356.833 656.578 357.099 656.929H379.571C379.401 656.626 379.204 656.269 378.975 655.865C375.262 649.168 364.274 629.149 354.074 608.394C343.113 586.091 333.057 562.941 333.904 554.562C333.642 556.452 326.058 614.058 356.322 655.865Z" fill="#E6E6E6"/>
<path d="M407.004 171.74L419.183 162.005C409.722 160.962 405.835 166.119 404.244 170.2C396.852 167.133 388.806 171.153 388.806 171.153L413.173 179.993C411.944 176.712 409.804 173.849 407.004 171.74Z" fill="#3F3D56"/>
<path d="M773.816 121.632L785.994 111.897C776.533 110.854 772.646 116.011 771.055 120.093C763.663 117.025 755.617 121.045 755.617 121.045L779.984 129.886C778.755 126.604 776.615 123.741 773.816 121.632Z" fill="#3F3D56"/>
<path d="M703.687 250.815L715.865 241.081C706.404 240.037 702.517 245.194 700.926 249.276C693.535 246.208 685.488 250.228 685.488 250.228L709.856 259.069C708.626 255.787 706.486 252.924 703.687 250.815Z" fill="#3F3D56"/>
<path d="M225.621 442.214C285.387 431.445 316.014 323.918 294.027 202.045C272.04 80.1717 205.765 -9.89575 145.999 0.873383C86.2323 11.6425 55.6059 119.17 77.5928 241.043C99.5797 362.916 165.854 452.983 225.621 442.214Z" fill="#E6E6E6"/>
<path d="M167.8 179.574C177.472 205.858 186.079 232.501 193.621 259.501C201.149 286.476 207.588 313.723 212.938 341.242C218.289 368.752 222.53 396.447 225.664 424.326C228.782 452.156 230.785 480.082 231.673 508.102C232.557 536.092 232.313 564.087 230.942 592.087C230.773 595.518 230.587 598.947 230.384 602.376C230.177 605.888 235.644 605.876 235.85 602.376C237.502 574.287 238.021 546.163 237.405 518.005C236.786 490.008 235.047 462.065 232.187 434.177C229.319 406.208 225.347 378.38 220.27 350.693C215.19 323.019 209.005 295.577 201.715 268.369C194.43 241.192 186.053 214.338 176.585 187.809C175.43 184.574 174.259 181.345 173.071 178.122C171.867 174.85 166.582 176.264 167.8 179.574V179.574Z" fill="#3F3D56"/>
<path d="M205.466 282.971L229.683 229.231L236.509 214.085C236.853 213.454 236.944 212.716 236.761 212.021C236.579 211.327 236.138 210.728 235.529 210.347C234.901 209.987 234.158 209.888 233.458 210.072C232.758 210.255 232.159 210.706 231.789 211.327L207.571 265.067L200.746 280.213C200.401 280.844 200.311 281.582 200.493 282.277C200.676 282.971 201.117 283.57 201.726 283.951C202.353 284.311 203.097 284.41 203.797 284.226C204.496 284.043 205.096 283.592 205.466 282.971H205.466Z" fill="#3F3D56"/>
<path d="M210.817 319.69L155.596 298.998L140.032 293.167C139.333 292.98 138.589 293.076 137.96 293.432C137.331 293.789 136.868 294.379 136.67 295.074C136.493 295.772 136.593 296.512 136.949 297.138C137.304 297.764 137.888 298.229 138.579 298.434L193.799 319.126L209.364 324.957C210.062 325.144 210.807 325.048 211.435 324.692C212.064 324.335 212.528 323.745 212.726 323.05C212.903 322.352 212.803 321.612 212.447 320.986C212.091 320.36 211.507 319.896 210.817 319.69V319.69Z" fill="#3F3D56"/>
<path d="M167.816 612.799C167.816 612.799 234.322 590.948 296.273 612.799H167.816Z" fill="#E6E6E6"/>
<path d="M465.403 602.446C478.582 602.309 491.759 602.074 504.937 601.895C509.331 601.835 513.724 601.783 518.117 601.738C521.903 601.698 521.913 595.816 518.117 595.855C504.939 595.992 491.762 596.228 478.583 596.407C474.19 596.466 469.797 596.519 465.403 596.563C461.618 596.603 461.608 602.486 465.403 602.446Z" fill="#315EFB"/>
<path d="M465.403 616.173L518.666 615.622L533.815 615.465C537.6 615.425 537.61 609.542 533.815 609.582L480.551 610.133L465.403 610.29C461.618 610.329 461.608 616.212 465.403 616.173Z" fill="#315EFB"/>
<path d="M465.403 629.9L518.666 629.348L533.815 629.191C537.6 629.152 537.61 623.269 533.815 623.308L480.551 623.86L465.403 624.017C461.618 624.056 461.608 629.939 465.403 629.9Z" fill="#315EFB"/>
</g>
<defs>
<clipPath id="clip0">
<rect width="921" height="791" fill="white"/>
</clipPath>
</defs>
</svg>

