<svg width="921" height="715" viewBox="0 0 921 715" fill="none" xmlns="http://www.w3.org/2000/svg">
<path d="M582.665 713.181C582.665 713.181 568.548 678.437 610.897 652.38L582.665 713.181Z" fill="#E6E6E6"/>
<path d="M565.304 712.549C565.304 712.549 560.998 687.785 527.668 687.998L565.304 712.549Z" fill="#E6E6E6"/>
<path d="M883.701 713.181C883.701 713.181 865.051 667.28 921 632.854L883.701 713.181Z" fill="#E6E6E6"/>
<path d="M860.765 712.346C860.765 712.346 855.076 679.63 811.043 679.911L860.765 712.346Z" fill="#E6E6E6"/>
<path d="M534.887 198.749L516.469 188.967L517.847 188.234L536.265 198.017L534.887 198.749Z" fill="#CBCBCB"/>
<path d="M518.821 198.749L517.444 198.017L535.861 188.234L537.239 188.967L518.821 198.749Z" fill="#CBCBCB"/>
<path d="M381.738 122.925L380.849 124.659L386.052 127.325L386.941 125.59L381.738 122.925Z" fill="#CBCBCB"/>
<path d="M489.613 180.386L479.257 175.08L480.145 173.346L490.501 178.652L489.613 180.386ZM468.901 169.774L458.544 164.468L459.433 162.733L469.789 168.04L468.901 169.774ZM448.188 159.161L437.832 153.855L438.721 152.121L449.077 157.427L448.188 159.161ZM427.476 148.549L417.12 143.243L418.009 141.509L428.365 146.815L427.476 148.549ZM406.764 137.937L396.408 132.631L397.297 130.897L407.653 136.203L406.764 137.937Z" fill="#CBCBCB"/>
<path d="M500.857 183.958L499.968 185.692L505.171 188.358L506.06 186.624L500.857 183.958Z" fill="#CBCBCB"/>
<path d="M108.005 253.372C108.005 253.98 107.985 254.584 107.946 255.182C107.724 258.634 106.852 262.013 105.375 265.14C105.364 265.167 105.35 265.192 105.339 265.217C105.27 265.362 105.2 265.507 105.127 265.65C104.688 266.534 104.201 267.394 103.667 268.226C101.232 272.042 97.8938 275.2 93.948 277.42C90.0022 279.64 85.5702 280.855 81.0436 280.956L81.3165 296.647L84.8753 294.774L85.5107 295.981L81.3432 298.175L81.8527 327.318L81.8584 327.708L79.1068 328.32L79.1125 327.929L79.9788 280.958C76.3354 280.905 72.7386 280.13 69.3973 278.676C66.056 277.223 63.0368 275.12 60.515 272.49C60.3414 272.311 60.1697 272.126 60.0017 271.942L59.9826 271.921C57.8815 269.63 56.1822 267.001 54.9564 264.144C54.9831 264.175 55.0118 264.203 55.0385 264.234C52.2681 257.756 52.0802 250.464 54.5133 243.853C56.9464 237.241 61.8163 231.81 68.125 228.673C68.2204 228.625 68.3177 228.579 68.4131 228.531C74.6536 225.526 81.7956 224.974 88.4235 226.986C95.0515 228.998 100.682 233.427 104.198 239.394C104.366 239.676 104.528 239.964 104.685 240.254C106.869 244.281 108.01 248.791 108.005 253.372Z" fill="#E5E5E5"/>
<path d="M104.29 265.232C124.265 265.232 140.458 249.04 140.458 229.067C140.458 209.095 124.265 192.903 104.29 192.903C84.3151 192.903 68.1221 209.095 68.1221 229.067C68.1221 249.04 84.3151 265.232 104.29 265.232Z" fill="#E5E5E5"/>
<path opacity="0.2" d="M77.5848 204.913C74.2111 212.803 73.7535 221.637 76.2936 229.834C78.8338 238.031 84.2062 245.058 91.4509 249.659C98.6956 254.26 107.34 256.135 115.841 254.95C124.341 253.764 132.143 249.595 137.852 243.188C135.791 248.009 132.706 252.324 128.812 255.834C124.917 259.345 120.306 261.967 115.298 263.519C110.289 265.071 105.003 265.515 99.806 264.822C94.6086 264.128 89.6243 262.313 85.1982 259.502C80.7721 256.691 77.0101 252.951 74.1729 248.542C71.3357 244.133 69.4911 239.16 68.7669 233.968C68.0428 228.775 68.4563 223.487 69.9789 218.47C71.5015 213.453 74.0967 208.827 77.5848 204.913Z" fill="black"/>
<path d="M106.247 329.814L102.553 328.778L102.561 328.381L103.668 268.226L103.723 265.226L103.724 265.139L103.918 254.629L104.198 239.396V239.393L104.388 229.068H104.49L104.685 240.254L104.938 254.815L105.12 265.145V265.222L105.128 265.648V265.65L105.479 285.789L105.515 287.79L106.24 329.414L106.247 329.814Z" fill="#3F3D56"/>
<path d="M110.142 283.333L104.163 286.481L104.996 288.063L110.975 284.916L110.142 283.333Z" fill="#3F3D56"/>
<path d="M573.136 112.027C527.486 109.329 481.698 110.033 436.152 114.133C414.2 116.117 391.898 118.26 370.352 123.048C352.997 126.905 332.854 133.423 322.04 148.605C319.776 151.664 318.25 155.205 317.581 158.952C316.913 162.699 317.121 166.549 318.188 170.202C320.766 178.857 327.18 186.061 334.011 191.704C349.732 204.69 369.239 212.247 386.663 222.564C418.476 241.402 447.592 266.792 466.28 299.046C474.504 313.239 482.326 332.111 473.169 347.75C464.198 363.071 444.172 368.349 427.841 370.839C407.371 373.959 386.285 373.112 365.73 371.365C343.194 369.264 320.785 365.982 298.593 361.533C255.118 353.186 212.04 342.568 167.961 337.74C145.859 335.141 123.572 334.496 101.357 335.814C81.2945 337.167 61.0603 340.34 42.2131 347.574C27.6897 353.147 12.2086 361.581 4.36361 375.645C-3.19857 389.202 -0.249085 404.835 7.98519 417.344C17.8927 432.394 33.3421 442.707 49.4044 450.244C67.6927 458.827 87.2537 464.39 106.84 469.121C116.773 471.521 126.761 473.69 136.749 475.848C138.832 476.298 139.723 473.098 137.632 472.646C117.49 468.294 97.2893 463.928 77.6476 457.628C59.4712 451.798 40.8701 444.331 25.9853 432.089C13.9434 422.186 2.49413 407.721 3.20489 391.275C3.9214 374.695 17.8334 363.119 31.4691 355.994C48.5099 347.09 67.8706 342.752 86.8418 340.485C108.564 338.065 130.471 337.767 152.251 339.596C196.226 342.941 239.218 352.957 282.334 361.694C324.22 370.181 367.413 378.04 410.338 375.863C427.352 375 445.582 372.563 460.605 363.976C467.483 360.044 473.685 354.5 477.18 347.285C480.33 340.42 481.326 332.762 480.037 325.32C477.601 308.972 467.89 293.814 458.201 280.793C447.58 266.67 435.259 253.909 421.518 242.798C406.437 230.662 390.176 220.071 372.979 211.182C363.86 206.381 354.611 201.765 345.921 196.204C337.588 190.873 329.368 184.458 324.28 175.803C319.879 168.318 319.072 159.774 323.656 152.182C328.292 144.503 336.28 139.148 344.158 135.234C363.137 125.805 385.203 123.281 405.968 120.694C450.555 115.16 495.489 112.92 540.406 113.992C551.323 114.249 562.234 114.701 573.136 115.348C575.271 115.473 575.264 112.153 573.136 112.027V112.027Z" fill="black"/>
<path d="M544.176 5.59175L551.072 0.0772299C545.715 -0.513719 543.514 2.40748 542.613 4.71964C538.428 2.98205 533.873 5.25923 533.873 5.25923L547.669 10.2674C546.973 8.40851 545.762 6.78658 544.176 5.59175Z" fill="#3F3D56"/>
<path d="M510.712 23.0498L517.607 17.5352C512.25 16.9443 510.049 19.8655 509.148 22.1776C504.963 20.4401 500.408 22.7172 500.408 22.7172L514.204 27.7254C513.508 25.8665 512.297 24.2446 510.712 23.0498Z" fill="#3F3D56"/>
<path d="M544.176 50.6916L551.072 45.1771C545.715 44.5861 543.514 47.5073 542.613 49.8195C538.428 48.0819 533.873 50.3591 533.873 50.3591L547.669 55.3672C546.973 53.5084 545.762 51.8864 544.176 50.6916Z" fill="#3F3D56"/>
<path d="M440.801 58.8617C452.275 58.8617 461.577 49.5613 461.577 38.0886C461.577 26.6159 452.275 17.3154 440.801 17.3154C429.327 17.3154 420.026 26.6159 420.026 38.0886C420.026 49.5613 429.327 58.8617 440.801 58.8617Z" fill="#F05A44"/>
<path d="M505.95 102.1H404.031C403.903 102.102 403.776 102.092 403.65 102.07L451.854 18.5898C452.148 18.0698 452.575 17.6371 453.091 17.3361C453.607 17.0351 454.194 16.8765 454.791 16.8765C455.388 16.8765 455.975 17.0351 456.491 17.3361C457.007 17.6371 457.434 18.0698 457.728 18.5898L490.077 74.6097L491.626 77.2899L505.95 102.1Z" fill="#315EFB"/>
<path d="M562.693 102.101H474.544L491.624 77.2928L492.853 75.505L515.112 43.1752C515.505 42.6805 515.998 42.2743 516.559 41.9828C517.12 41.6914 517.736 41.5213 518.367 41.4836C518.998 41.4459 519.63 41.5415 520.222 41.7641C520.814 41.9868 521.352 42.3314 521.802 42.7758C521.917 42.902 522.024 43.0354 522.122 43.1752L562.693 102.101Z" fill="#315EFB"/>
<path d="M417.286 293.565C426.946 298.393 432.828 304.769 432.828 311.763C432.828 326.829 405.562 339.042 371.93 339.042C357.307 339.042 343.892 336.732 333.394 332.884C344.544 338.456 360.73 341.965 378.75 341.965C412.383 341.965 439.648 329.752 439.648 314.686C439.648 306.17 430.934 298.568 417.286 293.565Z" fill="#F1F1F1"/>
<path d="M438.774 303.914C449.675 309.361 456.311 316.556 456.311 324.448C456.311 341.448 425.546 355.229 387.595 355.229C371.095 355.229 355.958 352.622 344.112 348.28C356.694 354.568 374.957 358.527 395.291 358.527C433.242 358.527 464.007 344.746 464.007 327.746C464.007 318.137 454.174 309.558 438.774 303.914Z" fill="#F1F1F1"/>
<path d="M409.062 298.123C415.868 301.525 420.012 306.017 420.012 310.944C420.012 321.559 400.803 330.163 377.108 330.163C367.876 330.283 358.693 328.815 349.958 325.824C357.814 329.75 369.217 332.222 381.913 332.222C405.608 332.222 424.817 323.618 424.817 313.003C424.817 307.004 418.677 301.648 409.062 298.123Z" fill="#F1F1F1"/>
<path d="M313.434 296.175C313.434 296.175 314.929 318.033 357.801 318.033C400.674 318.033 413.473 296.175 413.473 296.175H313.434Z" fill="#3F3D56"/>
<path d="M374.286 238.825C368.097 234.123 360.328 231.999 352.608 232.896C359.507 234.559 365.601 238.599 369.819 244.306C374.036 250.014 376.109 257.024 375.672 264.108C375.236 271.191 372.319 277.894 367.432 283.041C362.546 288.187 356.003 291.449 348.951 292.253C355.696 293.881 362.796 293.137 369.057 290.147C375.319 287.157 380.36 282.102 383.332 275.833C386.305 269.564 387.029 262.463 385.381 255.723C383.734 248.983 379.816 243.016 374.286 238.825Z" fill="#3F3D56"/>
<path d="M360.237 228.951H357.314V298.523H360.237V228.951Z" fill="#3F3D56"/>
<path d="M552.342 177.259L552.326 177.232L552.287 175.533L561.444 162.238L552.297 174.261L552.265 174.62L551.952 161.031L559.861 147.248L551.929 158.644L552.012 130.493L552.011 130.399L552.009 130.491L551.484 152.678L544.275 143.666L551.461 154.59L551.303 166.744L544.67 154.882L551.279 168.531L551.191 175.29L550.949 194.014L550.931 195.413C551.542 195.418 552.147 195.408 552.745 195.383L552.33 177.398L552.342 177.259Z" fill="#CBCBCB"/>
<path d="M508.495 183.104L508.479 183.078L508.44 181.378L517.598 168.084L508.451 180.106L508.418 180.465L508.105 166.877L516.015 153.094L508.083 164.49L508.165 136.338L508.165 136.245L508.163 136.337L507.637 158.524L500.429 149.511L507.614 160.435L507.457 172.59L500.823 160.728L507.432 174.377L507.344 181.135L507.102 199.859L507.085 201.259C507.695 201.263 508.3 201.253 508.899 201.228L508.484 183.243L508.495 183.104Z" fill="#CBCBCB"/>
<path d="M529.931 164.593L529.916 164.567L529.876 162.867L539.034 149.573L529.887 161.595L529.854 161.954L529.541 148.366L537.451 134.583L529.519 145.979L529.602 117.827L529.601 117.734L529.599 117.826L529.073 140.013L521.865 131.001L529.05 141.924L528.893 154.079L522.259 142.217L528.868 155.866L528.78 162.624L528.538 181.349L528.521 182.748C529.131 182.752 529.736 182.742 530.335 182.717L529.92 164.732L529.931 164.593Z" fill="#CBCBCB"/>
<path d="M167.8 488.104C174.257 488.104 179.492 482.869 179.492 476.413C179.492 469.956 174.257 464.721 167.8 464.721C161.342 464.721 156.107 469.956 156.107 476.413C156.107 482.869 161.342 488.104 167.8 488.104Z" fill="#315EFB"/>
<path d="M791.899 692.221L781.074 696.242L760.41 656.408L776.387 650.473L791.899 692.221Z" fill="#FFB7B7"/>
<path d="M798.558 701.686L763.655 714.653L763.491 714.211C762.152 710.609 762.3 706.622 763.901 703.128C765.502 699.634 768.425 696.919 772.028 695.58L772.029 695.58L793.347 687.661L798.558 701.686Z" fill="#2F2E41"/>
<path d="M685.371 703.46L673.824 703.459L668.33 658.923L685.373 658.924L685.371 703.46Z" fill="#FFB7B7"/>
<path d="M687.375 714.653L650.14 714.651V714.18C650.14 710.337 651.667 706.651 654.385 703.934C657.103 701.216 660.789 699.69 664.633 699.689H664.634L687.375 699.69L687.375 714.653Z" fill="#2F2E41"/>
<path d="M738.24 394.583L734.473 387.049L702.448 403.06L703.39 409.652L697.267 417.658C697.267 417.658 686.906 423.309 688.79 442.145L690.674 460.039L693.029 483.113L676.545 540.093L668.068 615.438L661.945 676.184L691.616 674.772L718.931 575.882L766.969 682.306L799.936 673.83L754.724 568.347L749.072 524.082C749.072 524.082 752.84 500.537 734.944 484.526L737.769 476.05V465.605L747.189 415.774L738.24 394.583Z" fill="#2F2E41"/>
<path opacity="0.2" d="M739.121 502.27L718.398 575.731L719.464 576.032L740.186 502.571L739.121 502.27Z" fill="black"/>
<path d="M737.299 483.113H691.145V487.822H737.299V483.113Z" fill="#3F3D56"/>
<path d="M691.145 490.648C692.185 490.648 693.029 488.54 693.029 485.939C693.029 483.338 692.185 481.23 691.145 481.23C690.104 481.23 689.261 483.338 689.261 485.939C689.261 488.54 690.104 490.648 691.145 490.648Z" fill="#3F3D56"/>
<path d="M724.001 382.403C736.168 375.753 740.64 360.499 733.989 348.333C727.337 336.168 712.082 331.697 699.915 338.347C687.748 344.997 683.277 360.251 689.928 372.417C696.579 384.582 711.834 389.053 724.001 382.403Z" fill="#FFB7B7"/>
<path d="M750.378 351.413C762.645 351.413 772.59 341.47 772.59 329.204C772.59 316.938 762.645 306.995 750.378 306.995C738.111 306.995 728.167 316.938 728.167 329.204C728.167 341.47 738.111 351.413 750.378 351.413Z" fill="#2F2E41"/>
<path d="M778.565 326.825C779.441 329.768 779.697 332.86 779.318 335.907C778.938 338.954 777.931 341.888 776.36 344.526C774.789 347.164 772.688 349.448 770.19 351.233C767.691 353.018 764.85 354.265 761.845 354.897C758.84 355.529 755.737 355.531 752.732 354.903C749.726 354.274 746.883 353.03 744.383 351.248C741.882 349.466 739.779 347.185 738.204 344.549C736.63 341.913 735.619 338.979 735.236 335.933C736.828 341.276 740.37 345.825 745.161 348.677C749.951 351.529 755.639 352.476 761.095 351.329C766.551 350.182 771.376 347.025 774.613 342.486C777.849 337.947 779.26 332.356 778.565 326.825Z" fill="#2F2E41"/>
<path d="M690.816 353.405C690.165 359.146 691.425 364.941 694.401 369.893C697.378 374.846 701.904 378.678 707.28 380.796C712.656 382.915 718.58 383.202 724.136 381.612C729.691 380.022 734.567 376.645 738.007 372.003C741.448 367.362 743.262 361.715 743.168 355.938C743.073 350.161 741.076 344.577 737.485 340.05C733.895 335.524 728.911 332.307 723.307 330.9C717.703 329.492 711.791 329.973 706.487 332.266C702.101 328.729 696.663 329.825 692.241 333.558C687.242 337.779 685.758 340.678 681.881 347.619C685.693 348.155 687.004 352.87 690.816 353.405Z" fill="#2F2E41"/>
<path d="M783.106 428.902C782.825 436.342 782.268 450.986 782.268 451.733C782.268 452.521 771.165 475.508 766.368 485.401V485.406C766.027 486.103 765.721 486.735 765.45 487.292C765.079 488.06 764.496 488.705 763.769 489.152C763.042 489.598 762.203 489.827 761.351 489.811L740.388 489.434C739.236 489.415 738.136 488.951 737.318 488.139C736.5 487.328 736.027 486.232 735.998 485.08L733.66 392.866C733.652 392.562 733.705 392.26 733.816 391.976C733.927 391.693 734.094 391.435 734.306 391.217C734.518 390.999 734.772 390.826 735.052 390.708C735.333 390.59 735.634 390.529 735.938 390.528H762.971C764.113 390.529 765.232 390.851 766.199 391.458C767.166 392.065 767.943 392.932 768.44 393.96L781.415 420.8C782.631 423.322 783.212 426.104 783.106 428.902V428.902Z" fill="#315EFB"/>
<path d="M735.633 478.752C730.254 475.493 725.421 471.408 721.31 466.649C711.759 455.907 705.95 442.357 704.756 428.034C703.69 415.779 706.122 406.669 711.984 400.958C719.435 393.699 729.578 394.754 730.006 394.802L730.46 394.854L737.331 400.667L735.387 402.965L729.239 397.763C727.357 397.669 719.673 397.649 714.06 403.138C708.894 408.191 706.773 416.479 707.755 427.773C708.891 441.411 714.408 454.315 723.482 464.56C727.396 469.088 731.985 472.985 737.086 476.116L735.633 478.752Z" fill="#315EFB"/>
<path d="M774.641 443.718L738.014 451.24L738.216 452.223L774.843 444.701L774.641 443.718Z" fill="#3F3D56"/>
<path d="M750.5 390.508L749.498 390.549L751.877 448.823L752.879 448.782L750.5 390.508Z" fill="#3F3D56"/>
<path d="M783.106 428.902C782.825 436.342 782.268 450.986 782.268 451.733C782.268 452.521 771.165 475.508 766.368 485.401L775.309 433.492C775.655 431.495 776.525 429.626 777.831 428.075C779.136 426.525 780.83 425.349 782.74 424.668C783.04 426.058 783.163 427.481 783.106 428.902Z" fill="#3F3D56"/>
<path d="M728.173 537.688C728.965 536.668 729.523 535.487 729.809 534.228C730.095 532.969 730.101 531.663 729.827 530.401C729.553 529.139 729.006 527.953 728.224 526.926C727.442 525.898 726.444 525.055 725.301 524.455L727.118 504.356L715.172 500.272L713.004 528.692C712.123 530.68 712.002 532.921 712.663 534.992C713.325 537.062 714.723 538.818 716.593 539.927C718.462 541.036 720.674 541.421 722.809 541.008C724.943 540.595 726.852 539.414 728.173 537.688Z" fill="#FFB7B7"/>
<path d="M729.734 518.24L708.566 517.472L709.462 415.4C709.447 412.511 710.34 409.691 712.015 407.338C713.69 404.985 716.062 403.217 718.797 402.286C721.352 401.437 724.113 401.434 726.67 402.279C729.57 403.26 732.06 405.179 733.748 407.733C735.436 410.287 736.226 413.33 735.992 416.382L729.734 518.24Z" fill="#CBCBCB"/>
<path d="M915.435 715H493.693C493.4 715 493.118 714.883 492.91 714.676C492.703 714.468 492.586 714.187 492.586 713.893C492.586 713.6 492.703 713.318 492.91 713.111C493.118 712.903 493.4 712.786 493.693 712.786H915.435C915.728 712.786 916.01 712.903 916.218 713.111C916.425 713.318 916.542 713.6 916.542 713.893C916.542 714.187 916.425 714.468 916.218 714.676C916.01 714.883 915.728 715 915.435 715Z" fill="#CBCBCB"/>
</svg>
